<?xml version="1.0" encoding="utf-8"?>
<!-- Generator: Adobe Illustrator 22.1.0, SVG Export Plug-In . SVG Version: 6.00 Build 0)  -->
<svg version="1.1" id="Ebene_1" xmlns="http://www.w3.org/2000/svg" xmlns:xlink="http://www.w3.org/1999/xlink" x="0px" y="0px"
	 viewBox="0 0 576 512" style="enable-background:new 0 0 576 512;" xml:space="preserve">
<style type="text/css">
	.st0{fill:#606B71;}
</style>
<path class="st0" d="M276.7,219.3c3.1,3.1,7.2,4.7,11.3,4.7s8.2-1.6,11.3-4.7l90.3-90.3c3.1-3.1,3.1-8.2,0-11.3l-11.3-11.3
	c-3.1-3.1-8.2-3.1-11.3,0l-63,63V8c0-4.4-3.6-8-8-8h-16c-4.4,0-8,3.6-8,8v161.4l-63-63c-3.1-3.1-8.2-3.1-11.3,0l-11.3,11.3
	c-3.1,3.1-3.1,8.2,0,11.3L276.7,219.3z M95.8,448h38.5l-44-66l86-17.2c6.3-1.3,11.3-6.2,12.6-12.6l17.2-86l73,48.7
	c5.4,3.6,12.4,3.6,17.8,0l73-48.7l17.2,86c1.2,6.3,6.2,11.3,12.6,12.6l86,17.2l-44,66h38.5l45.5-68.1c3-4.4,3.5-10.1,1.5-15
	s-6.4-8.5-11.7-9.6l-99-19.8l-19.8-99c-1-5.2-4.6-9.6-9.6-11.7c-5-2.1-10.6-1.5-15,1.5l-84,56l-84-56c-4.4-2.9-10.1-3.5-15-1.5
	s-8.5,6.4-9.6,11.7l-19.8,99l-99,19.8c-5.2,1-9.6,4.6-11.7,9.6s-1.5,10.6,1.5,15L95.8,448z M287.8,352c-56.3,0-102.5,41.9-110.4,96
	h32c7.4-36.5,39.7-64,78.4-64s70.9,27.5,78.4,64h32C390.4,393.9,344.1,352,287.8,352z M568,480H8c-4.4,0-8,3.6-8,8v16
	c0,4.4,3.6,8,8,8h560c4.4,0,8-3.6,8-8v-16C576,483.6,572.4,480,568,480z"/>
</svg>
