<?xml version="1.0" encoding="UTF-8"?>
<!DOCTYPE svg PUBLIC "-//W3C//DTD SVG 1.1//EN" "http://www.w3.org/Graphics/SVG/1.1/DTD/svg11.dtd">
<!-- Creator: CorelDRAW SE -->
<svg xmlns="http://www.w3.org/2000/svg" xml:space="preserve" width="28.9278mm" height="20.8087mm" version="1.1" style="shape-rendering:geometricPrecision; text-rendering:geometricPrecision; image-rendering:optimizeQuality; fill-rule:evenodd; clip-rule:evenodd"
viewBox="0 0 409 294"
 xmlns:xlink="http://www.w3.org/1999/xlink">
 <defs>
  <style type="text/css">
   <![CDATA[
    .fil0 {fill:#606B72}
   ]]>
  </style>
 </defs>
 <g id="Ebene_x0020_1">
  <metadata id="CorelCorpID_0Corel-Layer"/>
  <path class="fil0" d="M301 222c0,19 0,38 0,57 8,0 16,0 24,0 4,-12 2,-34 2,-48 -6,-2 -12,-3 -18,-5 0,0 0,-1 0,-1 -1,0 -2,0 -3,0 0,-1 0,-1 0,-2 -2,0 -3,-1 -5,-1zm-67 7c0,-16 1,-35 -2,-49 -1,-1 -3,-2 -4,-3 0,-1 0,-1 0,-2 -5,-1 -9,-2 -14,-3 -2,3 -5,3 -7,5 -2,2 -2,5 -5,7 0,15 0,29 0,44 8,3 22,1 32,1zm-116 -52c-1,4 -2,3 -3,4 0,2 0,4 0,6 0,0 -1,0 -1,0 0,14 0,27 0,41 7,3 21,1 31,1 0,-16 1,-35 -1,-49 -2,-1 -6,-4 -8,-6 -5,0 -9,-2 -13,0 -1,0 0,2 -5,3zm92 -18c7,0 17,-1 21,3 5,1 9,5 12,9 0,0 1,0 1,0 0,1 0,2 0,3 8,7 6,54 3,67 -12,5 -40,2 -55,2 -6,-12 -3,-45 -3,-63 2,-5 5,-9 7,-14 1,0 2,0 3,0 1,-1 2,-3 3,-4 3,-1 5,-1 8,-2 0,0 0,-1 0,-1zm-107 13c1,0 2,0 3,0 2,-6 7,-7 11,-12 7,0 14,-1 21,-1 0,0 0,1 0,1 2,0 4,0 6,0 3,5 1,1 4,3 1,1 1,2 2,3 1,1 3,2 4,3 0,1 0,2 0,3 1,1 2,1 3,2 0,1 0,2 0,3 1,0 1,0 2,0 4,11 1,48 1,63 -12,6 -39,3 -57,3 -6,-12 -3,-44 -3,-62 1,0 1,0 2,0 0,-3 1,-6 1,-9zm183 107c0,-25 0,-50 0,-75 -1,-1 -2,-1 -3,-2 -1,-3 -2,-7 -3,-10 -2,-2 -4,-3 -6,-5 0,0 0,-1 0,-1 -1,0 -2,0 -3,0 0,-1 -1,-2 -1,-3 -2,-2 -4,-3 -6,-5 0,-1 0,-2 0,-3 -2,-1 -3,-2 -5,-3 -6,-9 -7,-26 -9,-40 1,0 2,0 3,0 0,-2 0,-3 0,-5 -2,-1 -2,-2 -3,-3 -1,0 -2,0 -3,0 -1,-1 -2,-3 -3,-4 -1,0 -2,0 -3,0 -1,-2 -2,-3 -3,-5 -1,0 -2,0 -3,0 -1,-1 -2,-3 -3,-4 -1,0 -2,0 -3,0 -1,-2 -2,-3 -3,-5 -1,0 -2,0 -3,0 -1,-1 -2,-3 -3,-4 -1,0 -2,0 -3,0 -1,-2 -2,-3 -3,-5 -1,0 -2,0 -3,0 -1,-1 -2,-3 -3,-4 -1,0 -2,0 -3,0 -1,-2 -3,-4 -4,-6 -1,0 -2,0 -3,0 -1,-2 -2,-3 -3,-5 -1,0 -2,0 -3,0 -1,-1 -2,-3 -3,-4 -1,0 -2,0 -3,0 -1,-1 -1,-2 -2,-3 -1,-1 -3,-1 -4,-2 0,0 0,-1 0,-1 -3,-2 -3,-2 -8,-3 -2,4 -6,5 -10,7 -1,2 -2,3 -3,5 -1,0 -2,0 -3,0 -1,1 -2,3 -3,4 -1,0 -2,0 -3,0 -1,2 -2,3 -3,5 -1,0 -2,0 -3,0 -1,1 -1,2 -2,3 -1,0 -3,1 -4,1 -1,2 -2,3 -3,5 -1,0 -2,0 -3,0 -1,1 -2,3 -3,4 -1,0 -2,0 -3,0 -1,1 -1,2 -2,3 -1,1 -3,1 -4,2 -2,2 -3,4 -5,6 -1,0 -2,0 -3,0 -1,1 -2,3 -3,4 -1,0 -2,0 -3,0 -1,2 -2,3 -3,5 -1,0 -2,0 -3,0 -1,1 -2,3 -3,4 -1,0 -2,0 -3,0 -1,2 -3,4 -4,6 -1,0 -2,0 -3,0 -1,2 -2,3 -3,5 -1,0 -2,0 -3,0 -1,1 -2,3 -3,4 -1,0 -2,0 -3,0 -1,2 -2,3 -3,5 -1,0 -2,0 -3,0 -1,1 -1,2 -2,3 -1,0 -2,0 -3,0 0,0 0,1 0,1 -1,1 -2,1 -3,2 0,3 0,6 0,9 1,0 1,0 2,0 1,2 -2,3 -2,3 0,9 0,18 0,27 0,28 0,57 0,85 6,2 16,2 24,2 15,0 30,0 45,0 52,0 104,0 156,0zm41 -95c-1,-5 -1,-10 -2,-15 2,-5 4,-20 2,-28 -1,0 -1,0 -2,0 -1,-5 1,-13 3,-15 0,-1 0,-1 0,-2 3,0 6,0 9,0 1,1 3,3 3,3 0,8 0,15 0,23 1,0 2,0 3,0 2,-4 7,-9 12,-11 5,5 7,0 8,11 -8,7 -15,14 -23,21 0,15 0,30 0,45 19,-2 29,-17 35,-32 0,-2 0,-4 0,-6 0,0 1,0 1,0 0,0 0,-1 0,-1 0,0 -1,0 -1,0 0,-3 0,-5 0,-8 4,-3 8,-7 12,-10 0,-1 0,-2 0,-3 0,0 1,0 1,0 2,-4 8,-21 6,-29 0,0 -1,0 -1,0 0,-2 0,-4 0,-6 -1,0 -1,0 -2,0 0,-1 0,-3 0,-4 0,0 -1,0 -1,0 0,-1 0,-2 0,-3 -1,0 -1,0 -2,0 0,-1 0,-2 0,-3 -1,-1 -3,-2 -4,-3 0,-1 0,-2 0,-3 -1,-1 -2,-1 -3,-2 0,0 0,-1 0,-1 -1,0 -2,0 -3,0 -1,-2 -2,-3 -3,-5 -1,0 -2,0 -3,0 0,0 0,-1 0,-1 -2,-1 -3,-1 -5,-2 0,0 0,-1 0,-1 0,0 -1,0 -1,0 0,-2 0,-3 0,-5 -1,0 -1,0 -2,0 0,-1 0,-2 0,-3 0,0 -1,0 -1,0 0,-1 0,-3 0,-4 -1,-1 -2,-1 -3,-2 0,-1 0,-2 0,-3 -1,0 -2,-1 -3,-1 -3,-3 -5,-6 -8,-9 -1,0 -2,0 -3,0 0,-1 -1,-2 -1,-3 -1,0 -2,0 -3,0 0,-1 0,-1 0,-2 -4,0 -7,-1 -11,-1 -2,-1 -9,-3 -13,-2 0,1 0,1 0,2 -2,0 -4,0 -6,0 0,0 0,1 0,1 -3,1 -6,2 -9,3 0,1 0,1 0,2 -1,0 -2,0 -3,0 -2,2 -4,5 -6,7 -1,1 -2,1 -3,2 0,1 0,2 0,3 -1,0 -2,1 -3,1 -1,2 -1,4 -2,6 0,0 -1,0 -1,0 -1,8 -1,15 -2,23 -2,2 -5,4 -7,6 0,1 0,2 0,3 -2,1 -3,2 -5,3 -2,4 -7,26 -4,34 0,0 1,0 1,0 0,2 0,3 0,5 1,0 1,0 2,0 0,1 0,2 0,3 1,0 2,1 3,1 0,1 0,2 0,3 1,1 2,1 3,2 2,3 5,6 7,9 1,0 2,0 3,0 1,1 1,2 2,3 1,0 3,1 4,1 1,3 1,6 2,9 0,0 1,0 1,0 1,3 2,6 3,9 3,3 6,5 9,8 1,1 1,2 2,3 2,0 4,1 6,1 0,1 0,1 0,2 3,1 7,2 10,3 0,-1 0,-1 0,-2 1,0 1,0 2,0 0,-3 0,-6 0,-9 -7,-6 -13,-12 -20,-18 0,-2 0,-5 0,-7 5,-3 3,-3 11,-3 2,3 4,6 9,7zm-273 -42c0,-1 0,-2 0,-3 1,0 2,0 3,0 3,-4 6,-4 10,-7 2,-2 3,-4 5,-6 1,0 2,0 3,0 0,-1 1,-2 1,-3 1,0 2,0 3,0 1,-2 2,-3 3,-5 1,0 2,0 3,0 2,-2 3,-4 5,-6 1,0 3,-1 4,-1 1,-1 1,-2 2,-3 1,0 2,0 3,0 0,-1 1,-2 1,-3 2,-1 3,-1 5,-2 1,-1 2,-3 3,-4 1,0 2,0 3,0 0,-1 1,-2 1,-3 2,-1 3,-1 5,-2 1,-1 2,-3 3,-4 1,0 2,0 3,0 1,-2 2,-3 3,-5 1,0 2,0 3,0 1,-1 2,-3 3,-4 1,0 2,0 3,0 1,-2 2,-3 3,-5 1,0 2,0 3,0 1,-1 2,-3 3,-4 1,0 2,0 3,0 1,-2 2,-3 3,-5 1,0 2,0 3,0 1,-1 2,-3 3,-4 1,0 2,0 3,0 1,-2 2,-3 3,-5 1,0 2,0 3,0 0,-1 1,-2 1,-3 3,-2 7,-2 12,-3 3,4 7,5 11,8 1,1 2,3 3,4 1,0 2,0 3,0 1,2 2,3 3,5 1,0 2,0 3,0 0,1 1,2 1,3 2,0 3,1 5,1 1,2 2,3 3,5 1,0 2,0 3,0 1,1 2,3 3,4 1,0 2,0 3,0 1,2 2,3 3,5 1,0 2,0 3,0 1,1 2,3 3,4 1,0 2,0 3,0 1,2 2,3 3,5 1,0 2,0 3,0 1,2 3,4 4,6 1,0 2,0 3,0 1,1 2,3 3,4 4,3 8,4 11,8 0,0 1,0 1,0 0,-1 0,-1 0,-2 4,-2 1,-1 3,-4 1,-1 2,-1 3,-2 3,-3 3,-5 3,-12 1,0 1,0 2,0 0,-2 0,-5 0,-7 -4,-1 -4,-1 -6,-3 0,-1 0,-1 0,-2 -1,0 -2,0 -3,0 -1,-1 -1,-2 -2,-3 0,0 -1,0 -1,0 -1,-1 -1,-2 -2,-3 -1,0 -2,0 -3,0 -1,-1 -2,-3 -3,-4 -1,0 -2,0 -3,0 0,-1 -1,-2 -1,-3 -1,0 -2,0 -3,0 -2,-2 -3,-4 -5,-6 -1,0 -2,0 -3,0 -1,-2 -2,-3 -3,-5 -1,0 -2,0 -3,0 -1,-1 -2,-3 -3,-4 -1,0 -2,0 -3,0 -1,-2 -2,-3 -3,-5 -1,0 -2,0 -3,0 -1,-1 -2,-3 -3,-4 -1,0 -2,0 -3,0 -1,-2 -2,-3 -3,-5 -1,0 -2,0 -3,0 0,-1 -1,-2 -1,-3 -2,0 -3,-1 -5,-1 -1,-2 -2,-3 -3,-5 -1,0 -2,0 -3,0 -1,-1 -2,-3 -3,-4 -1,0 -2,0 -3,0 -1,-2 -2,-3 -3,-5 -3,-2 -6,-2 -9,-6 -3,1 -4,2 -6,3 0,1 0,1 0,2 -1,0 -3,1 -4,1 -1,1 -1,2 -2,3 -1,0 -2,0 -3,0 -1,2 -2,3 -3,5 -1,0 -2,0 -3,0 -1,1 -2,3 -3,4 -1,0 -2,0 -3,0 -1,2 -2,3 -3,5 -1,0 -2,0 -3,0 -1,1 -2,3 -3,4 -1,0 -2,0 -3,0 -1,2 -2,3 -3,5 -1,0 -2,0 -3,0 -1,1 -2,3 -3,4 -1,0 -2,0 -3,0 -1,2 -2,3 -3,5 -1,0 -2,0 -3,0 -1,1 -2,3 -3,4 -1,0 -2,0 -3,0 -1,2 -2,3 -3,5 -1,0 -2,0 -3,0 -1,1 -2,3 -3,4 -1,0 -2,0 -3,0 0,1 -1,2 -1,3 -2,1 -3,1 -5,2 -1,1 -2,3 -3,4 -1,0 -2,0 -3,0 -1,2 -3,4 -4,6 -1,0 -2,0 -3,0 -1,1 -1,2 -2,3 -1,0 -2,0 -3,0 -1,2 -2,3 -3,5 -1,0 -2,0 -3,0 -1,2 -3,4 -4,6 -2,0 -3,1 -5,1 0,1 -1,2 -1,3 -1,0 -2,0 -3,0 -1,1 -1,2 -2,3 -1,0 -2,0 -3,0 -1,2 -3,4 -4,6 -1,0 -2,0 -3,0 -1,2 -2,3 -3,5 -1,0 -2,0 -3,0 -1,1 -2,3 -3,4 -1,0 -2,0 -3,0 -1,2 -2,3 -3,5 -1,0 -2,0 -3,0 -1,1 -2,3 -3,4 -1,0 -2,0 -3,0 -1,1 -1,2 -3,3 0,1 0,2 0,3 4,3 13,16 15,20 7,-4 13,-12 21,-14zm286 137c22,0 48,-2 67,1 2,3 2,6 2,11 -2,0 -3,1 -5,1 -4,4 -18,2 -25,2 -24,0 -48,0 -72,0 -93,0 -186,0 -279,0 -2,-4 -4,-4 -4,-11 1,-1 4,-4 4,-4 7,0 13,0 20,0 0,-38 0,-76 0,-114 -8,2 -9,8 -18,9 -2,-2 0,-1 -3,-2 0,-1 0,-2 0,-3 -2,-1 -4,-3 -6,-4 0,-1 0,-2 0,-3 -2,-1 -3,-2 -5,-3 0,-1 0,-2 0,-3 -1,-1 -3,-2 -4,-3 0,-1 0,-2 0,-3 -2,-1 -3,-2 -5,-3 0,-1 0,-2 0,-3 -1,-1 -2,-1 -3,-2 -3,-3 -4,-6 -4,-13 2,-1 2,-3 3,-3 1,0 2,0 3,0 1,-2 2,-3 3,-5 1,0 2,0 3,0 1,-1 2,-3 3,-4 1,0 2,0 3,0 1,-2 2,-3 3,-5 1,0 2,0 3,0 1,-1 2,-3 3,-4 1,0 2,0 3,0 1,-2 3,-4 4,-6 1,0 2,0 3,0 1,-2 2,-3 3,-5 1,0 2,0 3,0 1,-1 2,-3 3,-4 1,0 2,0 3,0 1,-2 2,-3 3,-5 1,0 2,0 3,0 1,-1 2,-3 3,-4 1,0 2,0 3,0 1,-2 2,-3 3,-5 1,0 2,0 3,0 1,-1 2,-3 3,-4 1,0 2,0 3,0 1,-2 2,-3 3,-5 1,0 2,0 3,0 1,-1 1,-2 2,-3 1,0 3,-1 4,-1 1,-2 2,-3 3,-5 1,0 2,0 3,0 1,-1 1,-2 2,-3 1,0 3,-1 4,-1 1,-2 2,-3 3,-5 1,0 2,0 3,0 1,-1 2,-3 3,-4 1,0 2,0 3,0 1,-2 2,-3 3,-5 1,0 2,0 3,0 1,-1 2,-3 3,-4 1,0 2,0 3,0 1,-2 2,-3 3,-5 1,0 2,0 3,0 1,-1 2,-3 3,-4 1,0 2,0 3,0 1,-2 2,-3 3,-5 1,0 2,0 3,0 2,-2 3,-4 5,-6 1,0 2,0 3,0 1,-1 2,-3 3,-4 1,0 2,0 3,0 0,-1 1,-2 1,-3 1,0 2,0 3,0 1,-2 2,-3 3,-5 2,0 3,-1 5,-1 0,-1 1,-2 1,-3 3,-3 7,-3 12,-3 3,5 8,6 12,9 1,1 2,3 3,4 1,0 2,0 3,0 1,2 2,3 3,5 1,0 2,0 3,0 1,1 2,3 3,4 1,0 2,0 3,0 1,1 1,2 2,3 1,1 3,1 4,2 1,1 2,3 3,4 1,0 2,0 3,0 1,2 2,3 3,5 1,0 2,0 3,0 1,1 2,3 3,4 1,0 2,0 3,0 1,2 2,3 3,5 1,0 2,0 3,0 1,1 2,3 3,4 1,0 2,0 3,0 1,1 1,2 2,3 1,1 3,1 4,2 1,1 2,3 3,4 1,0 2,0 3,0 1,2 2,3 3,5 1,0 2,0 3,0 1,1 2,3 3,4 3,3 7,4 11,6 0,0 0,-1 0,-1 3,-3 3,-6 6,-9 0,0 1,0 1,0 1,-2 2,-3 3,-5 1,0 2,0 3,0 1,-1 2,-3 3,-4 1,0 2,0 3,0 1,-1 1,-2 2,-3 1,0 2,0 3,0 0,-1 0,-1 0,-2 1,0 2,0 3,0 0,0 0,-1 0,-1 4,-2 25,-5 33,-3 0,0 0,1 0,1 2,0 4,0 6,0 0,1 0,1 0,2 1,0 3,0 4,0 0,0 0,1 0,1 2,1 4,1 6,2 0,0 0,1 0,1 1,0 2,0 3,0 1,1 1,2 2,3 1,0 2,0 3,0 2,3 5,6 7,9 1,1 2,1 3,2 0,1 0,2 0,3 1,0 2,1 3,1 0,1 0,2 0,3 1,0 1,0 2,0 1,4 3,8 4,12 1,0 2,0 3,0 1,1 1,2 2,3 1,0 2,0 3,0 1,2 2,3 3,5 2,2 4,4 7,6 0,1 0,2 0,3 1,0 2,1 3,1 0,1 0,2 0,3 0,0 1,0 1,0 0,1 0,2 0,3 5,9 7,12 6,26 0,3 0,7 0,10 -1,7 -5,16 -9,21 -1,1 -3,2 -4,3 0,2 -1,3 -1,5 -1,0 -2,1 -3,1 -1,5 -1,9 -2,14 0,0 -1,0 -1,0 -1,3 -1,6 -2,9 -3,7 -10,12 -15,18 -1,1 -2,3 -3,4 -1,0 -2,0 -3,0 0,1 -1,2 -1,3 -1,0 -2,0 -3,0 0,1 0,1 0,2 -2,0 -4,1 -6,1 0,1 0,1 0,2 -2,0 -3,0 -5,0 0,0 0,1 0,1 -2,0 -5,0 -7,0 0,1 0,1 0,2 -1,0 -1,0 -2,0 0,16 0,32 0,48z"/>
 </g>
</svg>
