<?xml version="1.0" encoding="utf-8"?>
<!-- Generator: Adobe Illustrator 22.1.0, SVG Export Plug-In . SVG Version: 6.00 Build 0)  -->
<svg version="1.1" id="Ebene_1" xmlns="http://www.w3.org/2000/svg" xmlns:xlink="http://www.w3.org/1999/xlink" x="0px" y="0px"
	 viewBox="0 0 82 59" style="enable-background:new 0 0 82 59;" xml:space="preserve">
<style type="text/css">
	.st0{fill:#FFFFFF;}
</style>
<g id="Ebene_x0020_1">
	<path class="st0" d="M60.3,44.5c0,3.8,0,7.6,0,11.4c1.6,0,3.2,0,4.8,0c0.8-2.4,0.4-6.8,0.4-9.6c-1.2-0.4-2.4-0.6-3.6-1v-0.2
		c-0.2,0-0.4,0-0.6,0c0-0.2,0-0.2,0-0.4C60.9,44.7,60.7,44.5,60.3,44.5z M46.9,45.9c0-3.2,0.2-7-0.4-9.8c-0.2-0.2-0.6-0.4-0.8-0.6
		c0-0.2,0-0.2,0-0.4c-1-0.2-1.8-0.4-2.8-0.6c-0.4,0.6-1,0.6-1.4,1s-0.4,1-1,1.4c0,3,0,5.8,0,8.8C42.1,46.3,44.9,45.9,46.9,45.9z
		 M23.7,35.5c-0.2,0.8-0.4,0.6-0.6,0.8c0,0.4,0,0.8,0,1.2h-0.2c0,2.8,0,5.4,0,8.2c1.4,0.6,4.2,0.2,6.2,0.2c0-3.2,0.2-7-0.2-9.8
		c-0.4-0.2-1.2-0.8-1.6-1.2c-1,0-1.8-0.4-2.6,0C24.5,34.9,24.7,35.3,23.7,35.5z M42.1,31.9c1.4,0,3.4-0.2,4.2,0.6
		c1,0.2,1.8,1,2.4,1.8h0.2c0,0.2,0,0.4,0,0.6c1.6,1.4,1.2,10.8,0.6,13.4c-2.4,1-8,0.4-11,0.4c-1.2-2.4-0.6-9-0.6-12.6
		c0.4-1,1-1.8,1.4-2.8c0.2,0,0.4,0,0.6,0c0.2-0.2,0.4-0.6,0.6-0.8c0.6-0.2,1-0.2,1.6-0.4V31.9z M20.7,34.5c0.2,0,0.4,0,0.6,0
		c0.4-1.2,1.4-1.4,2.2-2.4c1.4,0,2.8-0.2,4.2-0.2v0.2c0.4,0,0.8,0,1.2,0c0.6,1,0.2,0.2,0.8,0.6c0.2,0.2,0.2,0.4,0.4,0.6
		s0.6,0.4,0.8,0.6c0,0.2,0,0.4,0,0.6c0.2,0.2,0.4,0.2,0.6,0.4c0,0.2,0,0.4,0,0.6c0.2,0,0.2,0,0.4,0c0.8,2.2,0.2,9.6,0.2,12.6
		c-2.4,1.2-7.8,0.6-11.4,0.6c-1.2-2.4-0.6-8.8-0.6-12.4c0.2,0,0.2,0,0.4,0C20.4,35.7,20.7,35.1,20.7,34.5z M57.3,56c0-5,0-10,0-15
		c-0.2-0.2-0.4-0.2-0.6-0.4c-0.2-0.6-0.4-1.4-0.6-2c-0.4-0.4-0.8-0.6-1.2-1v-0.2c-0.2,0-0.4,0-0.6,0c0-0.2-0.2-0.4-0.2-0.6
		c-0.4-0.4-0.8-0.6-1.2-1c0-0.2,0-0.4,0-0.6c-0.4-0.2-0.6-0.4-1-0.6c-1.2-1.8-1.4-5.2-1.8-8c0.2,0,0.4,0,0.6,0c0-0.4,0-0.6,0-1
		c-0.4-0.2-0.4-0.4-0.6-0.6c-0.2,0-0.4,0-0.6,0c-0.2-0.2-0.4-0.6-0.6-0.8c-0.2,0-0.4,0-0.6,0c-0.2-0.4-0.4-0.6-0.6-1
		c-0.2,0-0.4,0-0.6,0c-0.2-0.2-0.4-0.6-0.6-0.8c-0.2,0-0.4,0-0.6,0c-0.2-0.4-0.4-0.6-0.6-1c-0.2,0-0.4,0-0.6,0
		c-0.2-0.2-0.4-0.6-0.6-0.8c-0.2,0-0.4,0-0.6,0c-0.2-0.4-0.4-0.6-0.6-1c-0.2,0-0.4,0-0.6,0c-0.2-0.2-0.4-0.6-0.6-0.8
		c-0.2,0-0.4,0-0.6,0c-0.2-0.4-0.6-0.8-0.8-1.2c-0.2,0-0.4,0-0.6,0c-0.2-0.4-0.4-0.6-0.6-1c-0.2,0-0.4,0-0.6,0
		c-0.2-0.2-0.4-0.6-0.6-0.8c-0.2,0-0.4,0-0.6,0c-0.2-0.2-0.2-0.4-0.4-0.6s-0.6-0.2-0.8-0.4v-0.2c-0.6-0.4-0.6-0.4-1.6-0.6
		c-0.4,0.8-1.2,1-2,1.4c-0.2,0.4-0.4,0.6-0.6,1c-0.2,0-0.4,0-0.6,0c-0.2,0.2-0.4,0.6-0.6,0.8c-0.2,0-0.4,0-0.6,0
		c-0.2,0.4-0.4,0.6-0.6,1c-0.2,0-0.4,0-0.6,0c-0.2,0.2-0.2,0.4-0.4,0.6c-0.2,0-0.6,0.2-0.8,0.2c-0.2,0.4-0.4,0.6-0.6,1
		c-0.2,0-0.4,0-0.6,0c-0.2,0.2-0.4,0.6-0.6,0.8c-0.2,0-0.4,0-0.6,0c-0.2,0.2-0.2,0.4-0.4,0.6s-0.6,0.2-0.8,0.4
		c-0.4,0.4-0.6,0.8-1,1.2c-0.2,0-0.4,0-0.6,0c-0.2,0.2-0.4,0.6-0.6,0.8c-0.2,0-0.4,0-0.6,0c-0.2,0.4-0.4,0.6-0.6,1
		c-0.2,0-0.4,0-0.6,0c-0.2,0.2-0.4,0.6-0.6,0.8c-0.2,0-0.4,0-0.6,0c-0.2,0.4-0.6,0.8-0.8,1.2c-0.2,0-0.4,0-0.6,0
		c-0.2,0.4-0.4,0.6-0.6,1c-0.2,0-0.4,0-0.6,0c-0.2,0.2-0.4,0.6-0.6,0.8c-0.2,0-0.4,0-0.6,0c-0.2,0.4-0.4,0.6-0.6,1
		c-0.2,0-0.4,0-0.6,0c-0.2,0.2-0.2,0.4-0.4,0.6c-0.2,0-0.4,0-0.6,0v0.2c-0.2,0.2-0.4,0.2-0.6,0.4c0,0.6,0,1.2,0,1.8
		c0.2,0,0.2,0,0.4,0c0.2,0.4-0.4,0.6-0.4,0.6c0,1.8,0,3.6,0,5.4c0,5.6,0,11.4,0,17C13.4,56,15.4,56,17,56c3,0,6,0,9,0
		C36.5,56,46.9,56,57.3,56z M65.6,36.9c-0.2-1-0.2-2-0.4-3c0.4-1,0.8-4,0.4-5.6c-0.2,0-0.2,0-0.4,0c-0.2-1,0.2-2.6,0.6-3
		c0-0.2,0-0.2,0-0.4c0.6,0,1.2,0,1.8,0c0.2,0.2,0.6,0.6,0.6,0.6c0,1.6,0,3,0,4.6c0.2,0,0.4,0,0.6,0c0.4-0.8,1.4-1.8,2.4-2.2
		c1,1,1.4,0,1.6,2.2c-1.6,1.4-3,2.8-4.6,4.2c0,3,0,6,0,9c3.8-0.4,5.8-3.4,7-6.4c0-0.4,0-0.8,0-1.2h0.2v-0.2h-0.2c0-0.6,0-1,0-1.6
		c0.8-0.6,1.6-1.4,2.4-2c0-0.2,0-0.4,0-0.6h0.2c0.4-0.8,1.6-4.2,1.2-5.8h-0.2c0-0.4,0-0.8,0-1.2c-0.2,0-0.2,0-0.4,0
		c0-0.2,0-0.6,0-0.8h-0.2c0-0.2,0-0.4,0-0.6c-0.2,0-0.2,0-0.4,0c0-0.2,0-0.4,0-0.6c-0.2-0.2-0.6-0.4-0.8-0.6c0-0.2,0-0.4,0-0.6
		c-0.2-0.2-0.4-0.2-0.6-0.4v-0.2c-0.2,0-0.4,0-0.6,0c-0.2-0.4-0.4-0.6-0.6-1c-0.2,0-0.4,0-0.6,0v-0.2c-0.4-0.2-0.6-0.2-1-0.4v-0.2
		h-0.2c0-0.4,0-0.6,0-1c-0.2,0-0.2,0-0.4,0c0-0.2,0-0.4,0-0.6h-0.2c0-0.2,0-0.6,0-0.8c-0.2-0.2-0.4-0.2-0.6-0.4c0-0.2,0-0.4,0-0.6
		c-0.2,0-0.4-0.2-0.6-0.2c-0.6-0.6-1-1.2-1.6-1.8c-0.2,0-0.4,0-0.6,0c0-0.2-0.2-0.4-0.2-0.6c-0.2,0-0.4,0-0.6,0c0-0.2,0-0.2,0-0.4
		c-0.8,0-1.4-0.2-2.2-0.2c-0.4-0.2-1.8-0.6-2.6-0.4c0,0.2,0,0.2,0,0.4c-0.4,0-0.8,0-1.2,0v0.2c-0.6,0.2-1.2,0.4-1.8,0.6
		c0,0.2,0,0.2,0,0.4c-0.2,0-0.4,0-0.6,0c-0.4,0.4-0.8,1-1.2,1.4c-0.2,0.2-0.4,0.2-0.6,0.4c0,0.2,0,0.4,0,0.6c-0.2,0-0.4,0.2-0.6,0.2
		c-0.2,0.4-0.2,0.8-0.4,1.2h-0.2c-0.2,1.6-0.2,3-0.4,4.6c-0.4,0.4-1,0.8-1.4,1.2c0,0.2,0,0.4,0,0.6c-0.4,0.2-0.6,0.4-1,0.6
		c-0.4,0.8-1.4,5.2-0.8,6.8h0.2c0,0.4,0,0.6,0,1c0.2,0,0.2,0,0.4,0c0,0.2,0,0.4,0,0.6c0.2,0,0.4,0.2,0.6,0.2c0,0.2,0,0.4,0,0.6
		c0.2,0.2,0.4,0.2,0.6,0.4c0.4,0.6,1,1.2,1.4,1.8c0.2,0,0.4,0,0.6,0c0.2,0.2,0.2,0.4,0.4,0.6c0.2,0,0.6,0.2,0.8,0.2
		c0.2,0.6,0.2,1.2,0.4,1.8h0.2c0.2,0.6,0.4,1.2,0.6,1.8c0.6,0.6,1.2,1,1.8,1.6c0.2,0.2,0.2,0.4,0.4,0.6c0.4,0,0.8,0.2,1.2,0.2
		c0,0.2,0,0.2,0,0.4c0.6,0.2,1.4,0.4,2,0.6c0-0.2,0-0.2,0-0.4c0.2,0,0.2,0,0.4,0c0-0.6,0-1.2,0-1.8c-1.4-1.2-2.6-2.4-4-3.6
		c0-0.4,0-1,0-1.4c1-0.6,0.6-0.6,2.2-0.6C64.2,36.1,64.6,36.7,65.6,36.9z M10.8,28.5c0-0.2,0-0.4,0-0.6c0.2,0,0.4,0,0.6,0
		c0.6-0.8,1.2-0.8,2-1.4c0.4-0.4,0.6-0.8,1-1.2c0.2,0,0.4,0,0.6,0c0-0.2,0.2-0.4,0.2-0.6c0.2,0,0.4,0,0.6,0c0.2-0.4,0.4-0.6,0.6-1
		c0.2,0,0.4,0,0.6,0c0.4-0.4,0.6-0.8,1-1.2c0.2,0,0.6-0.2,0.8-0.2c0.2-0.2,0.2-0.4,0.4-0.6c0.2,0,0.4,0,0.6,0c0-0.2,0.2-0.4,0.2-0.6
		c0.4-0.2,0.6-0.2,1-0.4c0.2-0.2,0.4-0.6,0.6-0.8c0.2,0,0.4,0,0.6,0c0-0.2,0.2-0.4,0.2-0.6c0.4-0.2,0.6-0.2,1-0.4
		c0.2-0.2,0.4-0.6,0.6-0.8c0.2,0,0.4,0,0.6,0c0.2-0.4,0.4-0.6,0.6-1c0.2,0,0.4,0,0.6,0c0.2-0.2,0.4-0.6,0.6-0.8c0.2,0,0.4,0,0.6,0
		c0.2-0.4,0.4-0.6,0.6-1c0.2,0,0.4,0,0.6,0c0.2-0.2,0.4-0.6,0.6-0.8c0.2,0,0.4,0,0.6,0c0.2-0.4,0.4-0.6,0.6-1c0.2,0,0.4,0,0.6,0
		c0.2-0.2,0.4-0.6,0.6-0.8c0.2,0,0.4,0,0.6,0c0.2-0.4,0.4-0.6,0.6-1c0.2,0,0.4,0,0.6,0c0-0.2,0.2-0.4,0.2-0.6
		c0.6-0.4,1.4-0.4,2.4-0.6c0.6,0.8,1.4,1,2.2,1.6c0.2,0.2,0.4,0.6,0.6,0.8c0.2,0,0.4,0,0.6,0c0.2,0.4,0.4,0.6,0.6,1
		c0.2,0,0.4,0,0.6,0c0,0.2,0.2,0.4,0.2,0.6c0.4,0,0.6,0.2,1,0.2c0.2,0.4,0.4,0.6,0.6,1c0.2,0,0.4,0,0.6,0c0.2,0.2,0.4,0.6,0.6,0.8
		c0.2,0,0.4,0,0.6,0c0.2,0.4,0.4,0.6,0.6,1c0.2,0,0.4,0,0.6,0c0.2,0.2,0.4,0.6,0.6,0.8c0.2,0,0.4,0,0.6,0c0.2,0.4,0.4,0.6,0.6,1
		c0.2,0,0.4,0,0.6,0c0.2,0.4,0.6,0.8,0.8,1.2c0.2,0,0.4,0,0.6,0c0.2,0.2,0.4,0.6,0.6,0.8c0.8,0.6,1.6,0.8,2.2,1.6h0.2
		c0-0.2,0-0.2,0-0.4c0.8-0.4,0.2-0.2,0.6-0.8c0.2-0.2,0.4-0.2,0.6-0.4c0.6-0.6,0.6-1,0.6-2.4c0.2,0,0.2,0,0.4,0c0-0.4,0-1,0-1.4
		c-0.8-0.2-0.8-0.2-1.2-0.6c0-0.2,0-0.2,0-0.4c-0.2,0-0.4,0-0.6,0c-0.2-0.2-0.2-0.4-0.4-0.6h-0.2c-0.2-0.2-0.2-0.4-0.4-0.6
		c-0.2,0-0.4,0-0.6,0c-0.2-0.2-0.4-0.6-0.6-0.8c-0.2,0-0.4,0-0.6,0c0-0.2-0.2-0.4-0.2-0.6c-0.2,0-0.4,0-0.6,0
		c-0.4-0.4-0.6-0.8-1-1.2c-0.2,0-0.4,0-0.6,0c-0.2-0.4-0.4-0.6-0.6-1c-0.2,0-0.4,0-0.6,0c-0.2-0.2-0.4-0.6-0.6-0.8
		c-0.2,0-0.4,0-0.6,0c-0.2-0.4-0.4-0.6-0.6-1c-0.2,0-0.4,0-0.6,0c-0.2-0.2-0.4-0.6-0.6-0.8c-0.2,0-0.4,0-0.6,0
		c-0.2-0.4-0.4-0.6-0.6-1c-0.2,0-0.4,0-0.6,0c0-0.2-0.2-0.4-0.2-0.6c-0.4,0-0.6-0.2-1-0.2c-0.2-0.4-0.4-0.6-0.6-1
		c-0.2,0-0.4,0-0.6,0c-0.2-0.2-0.4-0.6-0.6-0.8c-0.2,0-0.4,0-0.6,0c-0.2-0.4-0.4-0.6-0.6-1C36.3,4,35.7,4,35.1,3.2
		c-0.6,0.2-0.8,0.4-1.2,0.6c0,0.2,0,0.2,0,0.4c-0.2,0-0.6,0.2-0.8,0.2c-0.2,0.2-0.2,0.4-0.4,0.6c-0.2,0-0.4,0-0.6,0
		c-0.2,0.4-0.4,0.6-0.6,1c-0.2,0-0.4,0-0.6,0c-0.2,0.2-0.4,0.6-0.6,0.8c-0.2,0-0.4,0-0.6,0c-0.2,0.4-0.4,0.6-0.6,1
		c-0.2,0-0.4,0-0.6,0c-0.2,0.2-0.4,0.6-0.6,0.8c-0.2,0-0.4,0-0.6,0c-0.2,0.4-0.4,0.6-0.6,1c-0.2,0-0.4,0-0.6,0
		c-0.2,0.2-0.4,0.6-0.6,0.8c-0.2,0-0.4,0-0.6,0c-0.2,0.4-0.4,0.6-0.6,1c-0.2,0-0.4,0-0.6,0c-0.2,0.2-0.4,0.6-0.6,0.8
		c-0.2,0-0.4,0-0.6,0c-0.2,0.4-0.4,0.6-0.6,1c-0.2,0-0.4,0-0.6,0c-0.2,0.2-0.4,0.6-0.6,0.8c-0.2,0-0.4,0-0.6,0
		c0,0.2-0.2,0.4-0.2,0.6c-0.4,0.2-0.6,0.2-1,0.4c-0.2,0.2-0.4,0.6-0.6,0.8c-0.2,0-0.4,0-0.6,0c-0.2,0.4-0.6,0.8-0.8,1.2
		c-0.2,0-0.4,0-0.6,0c-0.2,0.2-0.2,0.4-0.4,0.6c-0.2,0-0.4,0-0.6,0c-0.2,0.4-0.4,0.6-0.6,1c-0.2,0-0.4,0-0.6,0
		c-0.2,0.4-0.6,0.8-0.8,1.2c-0.4,0-0.6,0.2-1,0.2c0,0.2-0.2,0.4-0.2,0.6c-0.2,0-0.4,0-0.6,0c-0.2,0.2-0.2,0.4-0.4,0.6
		c-0.2,0-0.4,0-0.6,0c-0.2,0.4-0.6,0.8-0.8,1.2c-0.2,0-0.4,0-0.6,0c-0.2,0.4-0.4,0.6-0.6,1c-0.2,0-0.4,0-0.6,0
		c-0.2,0.2-0.4,0.6-0.6,0.8c-0.2,0-0.4,0-0.6,0c-0.2,0.4-0.4,0.6-0.6,1c-0.2,0-0.4,0-0.6,0c-0.2,0.2-0.4,0.6-0.6,0.8
		c-0.2,0-0.4,0-0.6,0C4,26.3,4,26.5,3.6,26.7c0,0.2,0,0.4,0,0.6c0.8,0.6,2.6,3.2,3,4C8,30.5,9.2,28.9,10.8,28.5z M68.2,56
		c4.4,0,9.6-0.4,13.4,0.2c0.4,0.6,0.4,1.2,0.4,2.2c-0.4,0-0.6,0.2-1,0.2c-0.8,0.8-3.6,0.4-5,0.4c-4.8,0-9.6,0-14.4,0
		c-18.6,0-37.3,0-55.9,0c-0.4-0.8-0.8-0.8-0.8-2.2C5,56.6,5.6,56,5.6,56c1.4,0,2.6,0,4,0c0-7.6,0-15.2,0-22.9
		C8,33.5,7.8,34.7,6,34.9c-0.4-0.4,0-0.2-0.6-0.4c0-0.2,0-0.4,0-0.6c-0.4-0.2-0.8-0.6-1.2-0.8c0-0.2,0-0.4,0-0.6
		c-0.4-0.2-0.6-0.4-1-0.6c0-0.2,0-0.4,0-0.6c-0.2-0.2-0.6-0.4-0.8-0.6c0-0.2,0-0.4,0-0.6c-0.4-0.2-0.6-0.4-1-0.6c0-0.2,0-0.4,0-0.6
		c-0.2-0.2-0.4-0.2-0.6-0.4C0.2,27.9,0,27.3,0,25.9c0.4-0.2,0.4-0.6,0.6-0.6s0.4,0,0.6,0c0.2-0.4,0.4-0.6,0.6-1c0.2,0,0.4,0,0.6,0
		c0.2-0.2,0.4-0.6,0.6-0.8c0.2,0,0.4,0,0.6,0c0.2-0.4,0.4-0.6,0.6-1c0.2,0,0.4,0,0.6,0c0.2-0.2,0.4-0.6,0.6-0.8c0.2,0,0.4,0,0.6,0
		c0.2-0.4,0.6-0.8,0.8-1.2c0.2,0,0.4,0,0.6,0c0.2-0.4,0.4-0.6,0.6-1c0.2,0,0.4,0,0.6,0c0.2-0.2,0.4-0.6,0.6-0.8c0.2,0,0.4,0,0.6,0
		c0.2-0.4,0.4-0.6,0.6-1c0.2,0,0.4,0,0.6,0c0.2-0.2,0.4-0.6,0.6-0.8c0.2,0,0.4,0,0.6,0c0.2-0.4,0.4-0.6,0.6-1c0.2,0,0.4,0,0.6,0
		c0.2-0.2,0.4-0.6,0.6-0.8c0.2,0,0.4,0,0.6,0c0.2-0.4,0.4-0.6,0.6-1c0.2,0,0.4,0,0.6,0c0.2-0.2,0.2-0.4,0.4-0.6
		c0.2,0,0.6-0.2,0.8-0.2c0.2-0.4,0.4-0.6,0.6-1c0.2,0,0.4,0,0.6,0c0.2-0.2,0.2-0.4,0.4-0.6c0.2,0,0.6-0.2,0.8-0.2
		c0.2-0.4,0.4-0.6,0.6-1c0.2,0,0.4,0,0.6,0c0.2-0.2,0.4-0.6,0.6-0.8c0.2,0,0.4,0,0.6,0c0.2-0.4,0.4-0.6,0.6-1c0.2,0,0.4,0,0.6,0
		c0.2-0.2,0.4-0.6,0.6-0.8c0.2,0,0.4,0,0.6,0c0.2-0.4,0.4-0.6,0.6-1c0.2,0,0.4,0,0.6,0c0.2-0.2,0.4-0.6,0.6-0.8c0.2,0,0.4,0,0.6,0
		c0.2-0.4,0.4-0.6,0.6-1c0.2,0,0.4,0,0.6,0c0.4-0.4,0.6-0.8,1-1.2c0.2,0,0.4,0,0.6,0c0.2-0.2,0.4-0.6,0.6-0.8c0.2,0,0.4,0,0.6,0
		c0-0.2,0.2-0.4,0.2-0.6c0.2,0,0.4,0,0.6,0c0.2-0.4,0.4-0.6,0.6-1c0.4,0,0.6-0.2,1-0.2c0-0.2,0.2-0.4,0.2-0.6C33.9,0,34.7,0,35.7,0
		c0.6,1,1.6,1.2,2.4,1.8c0.2,0.2,0.4,0.6,0.6,0.8c0.2,0,0.4,0,0.6,0c0.2,0.4,0.4,0.6,0.6,1c0.2,0,0.4,0,0.6,0
		c0.2,0.2,0.4,0.6,0.6,0.8c0.2,0,0.4,0,0.6,0c0.2,0.2,0.2,0.4,0.4,0.6c0.2,0.2,0.6,0.2,0.8,0.4s0.4,0.6,0.6,0.8c0.2,0,0.4,0,0.6,0
		c0.2,0.4,0.4,0.6,0.6,1c0.2,0,0.4,0,0.6,0c0.2,0.2,0.4,0.6,0.6,0.8c0.2,0,0.4,0,0.6,0c0.2,0.4,0.4,0.6,0.6,1c0.2,0,0.4,0,0.6,0
		c0.2,0.2,0.4,0.6,0.6,0.8c0.2,0,0.4,0,0.6,0c0.2,0.2,0.2,0.4,0.4,0.6s0.6,0.2,0.8,0.4s0.4,0.6,0.6,0.8c0.2,0,0.4,0,0.6,0
		c0.2,0.4,0.4,0.6,0.6,1c0.2,0,0.4,0,0.6,0c0.2,0.2,0.4,0.6,0.6,0.8c0.6,0.6,1.4,0.8,2.2,1.2v-0.2c0.6-0.6,0.6-1.2,1.2-1.8h0.2
		c0.2-0.4,0.4-0.6,0.6-1c0.2,0,0.4,0,0.6,0c0.2-0.2,0.4-0.6,0.6-0.8c0.2,0,0.4,0,0.6,0c0.2-0.2,0.2-0.4,0.4-0.6c0.2,0,0.4,0,0.6,0
		c0-0.2,0-0.2,0-0.4c0.2,0,0.4,0,0.6,0V9.6c0.8-0.4,5-1,6.6-0.6v0.2c0.4,0,0.8,0,1.2,0c0,0.2,0,0.2,0,0.4c0.2,0,0.6,0,0.8,0v0.2
		c0.4,0.2,0.8,0.2,1.2,0.4v0.2c0.2,0,0.4,0,0.6,0c0.2,0.2,0.2,0.4,0.4,0.6c0.2,0,0.4,0,0.6,0c0.4,0.6,1,1.2,1.4,1.8
		c0.2,0.2,0.4,0.2,0.6,0.4c0,0.2,0,0.4,0,0.6c0.2,0,0.4,0.2,0.6,0.2c0,0.2,0,0.4,0,0.6c0.2,0,0.2,0,0.4,0c0.2,0.8,0.6,1.6,0.8,2.4
		c0.2,0,0.4,0,0.6,0c0.2,0.2,0.2,0.4,0.4,0.6c0.2,0,0.4,0,0.6,0c0.2,0.4,0.4,0.6,0.6,1c0.4,0.4,0.8,0.8,1.4,1.2c0,0.2,0,0.4,0,0.6
		c0.2,0,0.4,0.2,0.6,0.2c0,0.2,0,0.4,0,0.6h0.2c0,0.2,0,0.4,0,0.6c1,1.8,1.4,2.4,1.2,5.2c0,0.6,0,1.4,0,2c-0.2,1.4-1,3.2-1.8,4.2
		c-0.2,0.2-0.6,0.4-0.8,0.6c0,0.4-0.2,0.6-0.2,1c-0.2,0-0.4,0.2-0.6,0.2c-0.2,1-0.2,1.8-0.4,2.8h-0.2c-0.2,0.6-0.2,1.2-0.4,1.8
		c-0.6,1.4-2,2.4-3,3.6c-0.2,0.2-0.4,0.6-0.6,0.8c-0.2,0-0.4,0-0.6,0c0,0.2-0.2,0.4-0.2,0.6c-0.2,0-0.4,0-0.6,0c0,0.2,0,0.2,0,0.4
		c-0.4,0-0.8,0.2-1.2,0.2c0,0.2,0,0.2,0,0.4c-0.4,0-0.6,0-1,0v0.2c-0.4,0-1,0-1.4,0c0,0.2,0,0.2,0,0.4c-0.2,0-0.2,0-0.4,0
		C68.2,49.5,68.2,52.7,68.2,56z"/>
</g>
</svg>
