<?xml version="1.0" encoding="utf-8"?>
<!-- Generator: Adobe Illustrator 22.1.0, SVG Export Plug-In . SVG Version: 6.00 Build 0)  -->
<svg version="1.1" id="Ebene_1" xmlns="http://www.w3.org/2000/svg" xmlns:xlink="http://www.w3.org/1999/xlink" x="0px" y="0px"
	 viewBox="0 0 512 512" style="enable-background:new 0 0 512 512;" xml:space="preserve">
<style type="text/css">
	.st0{fill:#606B71;}
</style>
<path class="st0" d="M492,8h-10c-6.6,0-12,5.4-12,12v110.6C426.8,57,346.8,7.7,255.2,8C118.8,8.4,7.8,120,8,256.4
	C8.2,393.2,119.2,504,256,504c63.9,0,122.2-24.2,166.2-63.9c5.1-4.6,5.4-12.6,0.5-17.4l-7.1-7.1c-4.5-4.5-11.7-4.7-16.5-0.5
	c-37.9,34.1-88,54.9-143.1,54.9c-117.7,0-214-95.3-214-214c0-117.7,95.3-214,214-214c82.9,0,154.7,47.1,190.3,116H332
	c-6.6,0-12,5.4-12,12v10c0,6.6,5.4,12,12,12h160c6.6,0,12-5.4,12-12V20C504,13.4,498.6,8,492,8z"/>
</svg>
