<?xml version="1.0" encoding="utf-8"?>
<!-- Generator: Adobe Illustrator 22.1.0, SVG Export Plug-In . SVG Version: 6.00 Build 0)  -->
<svg version="1.1" id="Ebene_1" xmlns="http://www.w3.org/2000/svg" xmlns:xlink="http://www.w3.org/1999/xlink" x="0px" y="0px"
	 viewBox="0 0 512 512" style="enable-background:new 0 0 512 512;" xml:space="preserve">
<style type="text/css">
	.st0{fill:#606B71;}
</style>
<path class="st0" d="M224,128V32c0-17.7-14.3-32-32-32h-64c-17.7,0-32,14.3-32,32v96c-53,0-96,43-96,96v256c0,17.7,14.3,32,32,32
	h256c17.7,0,32-14.3,32-32V224C320,171,277,128,224,128z M128,32h64v96h-64V32z M288,480H32V224c0-35.3,28.7-64,64-64h128
	c35.3,0,64,28.7,64,64V480z M160,240c-44.2,0-80,35.8-80,80s35.8,80,80,80s80-35.8,80-80S204.2,240,160,240z M160,368
	c-26.5,0-48-21.5-48-48s21.5-48,48-48s48,21.5,48,48S186.5,368,160,368z M488,80c13.3,0,24-10.8,24-24c0-13.3-10.8-24-24-24
	s-24,10.7-24,24C464,69.3,474.8,80,488,80z M488,128c-13.3,0-24,10.7-24,24c0,13.3,10.8,24,24,24s24-10.8,24-24
	C512,138.7,501.3,128,488,128z M392,32c-13.3,0-24,10.7-24,24c0,13.3,10.8,24,24,24s24-10.8,24-24C416,42.7,405.3,32,392,32z
	 M392,128c-13.3,0-24,10.7-24,24c0,13.3,10.8,24,24,24s24-10.8,24-24C416,138.7,405.3,128,392,128z M296,32c-13.3,0-24,10.7-24,24
	c0,13.3,10.8,24,24,24s24-10.8,24-24C320,42.7,309.3,32,296,32z M488,224c-13.3,0-24,10.7-24,24c0,13.3,10.8,24,24,24s24-10.8,24-24
	C512,234.7,501.3,224,488,224z"/>
</svg>
