<?xml version="1.0" encoding="utf-8"?>
<!-- Generator: Adobe Illustrator 22.1.0, SVG Export Plug-In . SVG Version: 6.00 Build 0)  -->
<svg version="1.1" id="Ebene_1" xmlns="http://www.w3.org/2000/svg" xmlns:xlink="http://www.w3.org/1999/xlink" x="0px" y="0px"
	 viewBox="0 0 512 512" style="enable-background:new 0 0 512 512;" xml:space="preserve">
<style type="text/css">
	.st0{fill:#FFFFFF;}
</style>
<path class="st0" d="M492,8h-10c-6.6,0-12,5.4-12,12v110.6C426.9,57.3,347.2,8,256,8C123.2,8,14.8,112.3,8.3,243.5
	c-0.3,6.8,5.2,12.5,12,12.5h10c6.4,0,11.6-4.9,12-11.3C48.2,132.2,141.1,42,256,42c82.9,0,154.7,47.1,190.3,116H332
	c-6.6,0-12,5.4-12,12v10c0,6.6,5.4,12,12,12h160c6.6,0,12-5.4,12-12V20C504,13.4,498.6,8,492,8z M491.7,256h-10
	c-6.4,0-11.6,4.9-12,11.3C463.8,380.2,370.5,470,256,470c-82.6,0-154.7-47-190.3-116H180c6.6,0,12-5.4,12-12v-10c0-6.6-5.4-12-12-12
	H20c-6.6,0-12,5.4-12,12v160c0,6.6,5.4,12,12,12h10c6.6,0,12-5.4,12-12V381.4C85.1,454.7,164.8,504,256,504
	c132.8,0,241.2-104.3,247.7-235.5C504,261.7,498.5,256,491.7,256L491.7,256z"/>
</svg>
