<?xml version="1.0" encoding="utf-8"?>
<!-- Generator: Adobe Illustrator 22.1.0, SVG Export Plug-In . SVG Version: 6.00 Build 0)  -->
<svg version="1.1" id="Ebene_1" xmlns="http://www.w3.org/2000/svg" xmlns:xlink="http://www.w3.org/1999/xlink" x="0px" y="0px"
	 viewBox="0 0 512 512" style="enable-background:new 0 0 512 512;" xml:space="preserve">
<style type="text/css">
	.st0{fill:#FFFFFF;}
</style>
<path class="st0" d="M20,8h10c6.6,0,12,5.4,12,12v110.6C85.2,57,165.2,7.7,256.8,8C393.2,8.4,504.2,120,504,256.4
	C503.8,393.2,392.8,504,256,504c-63.9,0-122.2-24.2-166.2-63.9c-5.1-4.6-5.4-12.6-0.5-17.4l7.1-7.1c4.5-4.5,11.7-4.7,16.5-0.5
	c37.9,34.1,88,54.9,143.1,54.9c117.7,0,214-95.3,214-214c0-117.7-95.3-214-214-214c-82.9,0-154.7,47.1-190.3,116H180
	c6.6,0,12,5.4,12,12v10c0,6.6-5.4,12-12,12H20c-6.6,0-12-5.4-12-12V20C8,13.4,13.4,8,20,8z"/>
</svg>
