<?xml version="1.0" encoding="utf-8"?>
<!-- Generator: Adobe Illustrator 22.1.0, SVG Export Plug-In . SVG Version: 6.00 Build 0)  -->
<svg version="1.1" id="Ebene_1" xmlns="http://www.w3.org/2000/svg" xmlns:xlink="http://www.w3.org/1999/xlink" x="0px" y="0px"
	 viewBox="0 0 50 50" style="enable-background:new 0 0 50 50;" xml:space="preserve">
<style type="text/css">
	.st0{fill:#FFFFFF;}
</style>
<g id="Ebene_x0020_1">
	<path class="st0" d="M44.2,0c-1.7,0-2.5,0.8-4.2,1.7C19.2,20.8,16.7,20.8,17.5,27.5c-4.2,0-7.5,2.5-10,7.5c0,0.8-0.8,1.7-1.7,1.7
		s-5-3.3-5.8-4.2C0,41.7,4.2,50,14.2,50c11.7,0,15-9.2,14.2-14.2c5.8-0.8,9.2-6.7,20-25.8C49.2,8.3,50,6.7,50,5
		C50,2.5,47.5,0,44.2,0z M23.3,43.3c-2.5,2.5-5,3.3-9.2,3.3c-5.8,0-9.2-4.2-10-7.5c0.8,0,1.7,0,1.7,0c2.5,0,4.2-0.8,5-2.5
		s1.7-5.8,8.3-6.7l5.8,5C25.8,38.3,25,40.8,23.3,43.3z M45.8,8.3C34.2,30,31.7,31.7,26.7,32.5l-5.8-4.2c-0.8-5.8-1.7-4.2,21.7-24.2
		c0-0.8,0.8-0.8,1.7-0.8c0.8,0,2.5,0.8,2.5,1.7S45.8,7.5,45.8,8.3L45.8,8.3z"/>
</g>
</svg>
