<?xml version="1.0" encoding="utf-8"?>
<!-- Generator: Adobe Illustrator 22.0.1, SVG Export Plug-In . SVG Version: 6.00 Build 0)  -->
<svg version="1.1" id="Ebene_1" xmlns="http://www.w3.org/2000/svg" xmlns:xlink="http://www.w3.org/1999/xlink" x="0px" y="0px"
	 viewBox="0 0 595.2 462.1" style="enable-background:new 0 0 595.2 462.1;" xml:space="preserve">
<style type="text/css">
	.st0{fill:#63757D;}
</style>
<g>
	<path class="st0" d="M276.2,29.6l3.9,3.1c0.5,0.4,1.1,0.6,1.8,0.6c0.1,0,0.2,0,0.3,0c0.7-0.1,1.4-0.5,1.9-1.1l13.2-16.7l13.2,16.7
		c0.5,0.6,1.1,1,1.9,1.1c0.1,0,0.2,0,0.3,0c0.6,0,1.3-0.2,1.8-0.6l3.9-3.1c1.2-1,1.4-2.7,0.5-4L299.5,1.1c-0.5-0.7-1.4-1.1-2.2-1.1
		s-1.7,0.4-2.2,1.1l-19.3,24.5C274.7,26.8,274.9,28.6,276.2,29.6z"/>
	<path class="st0" d="M35,448.3l-20.6-5.8l10.4-18.6c0.8-1.4,0.3-3.1-1.1-3.9l-4.3-2.4c-0.4-0.2-0.9-0.4-1.4-0.4c-1,0-2,0.5-2.5,1.5
		L0.4,446c-0.4,0.8-0.5,1.7-0.1,2.5c0.3,0.8,1,1.4,1.8,1.6l30,8.5c0.3,0.1,0.5,0.1,0.8,0.1c1.2,0,2.4-0.8,2.7-2l1.4-4.8
		c0.2-0.7,0.1-1.5-0.2-2.2C36.3,449,35.7,448.5,35,448.3z"/>
	<path class="st0" d="M594.8,449.5L579,421.7c-0.5-0.9-1.5-1.4-2.5-1.4c-0.5,0-1,0.1-1.4,0.4l-4.4,2.5c-0.7,0.4-1.1,1-1.3,1.7
		c-0.2,0.7-0.1,1.5,0.3,2.2l10.9,19l-20.6,5.6c-1.5,0.4-2.4,2-2,3.5l1.3,4.8c0.2,0.7,0.7,1.3,1.3,1.7c0.4,0.2,0.9,0.4,1.4,0.4
		c0.3,0,0.5,0,0.7-0.1l30.3-8.3c0.8-0.2,1.5-0.8,1.9-1.6C595.3,451.2,595.2,450.3,594.8,449.5z"/>
	<circle class="st0" cx="295.9" cy="204" r="4.8"/>
	<circle class="st0" cx="295.9" cy="184.7" r="4.8"/>
	<circle class="st0" cx="295.9" cy="242.5" r="4.8"/>
	<circle class="st0" cx="295.9" cy="261.7" r="4.8"/>
	<circle class="st0" cx="295.9" cy="223.2" r="4.8"/>
	<path class="st0" d="M195,363c-0.6,0-1.2,0.1-1.8,0.3c-2.5,1-3.7,3.8-2.7,6.2c0.7,1.9,2.5,3.1,4.5,3.1c0.7,0,1.3-0.2,1.6-0.3
		c0,0,0.2-0.1,0.3-0.1c2.5-1,3.7-3.8,2.7-6.3C198.7,364.2,196.9,363,195,363z"/>
	<path class="st0" d="M213.4,355.4c-0.6,0-1.2,0.1-1.8,0.3c-1.2,0.5-2.1,1.4-2.6,2.6c-0.5,1.2-0.5,2.5,0,3.7c0,0.1,0.1,0.1,0.1,0.2
		c0.9,1.7,2.5,2.8,4.3,2.8c0.4,0,1,0,1.7-0.2c0.1,0,0.1,0,0.2-0.1c2.5-1,3.7-3.8,2.7-6.3C217.1,356.6,215.3,355.4,213.4,355.4z"/>
	<path class="st0" d="M176.5,370.7c-0.6,0-1.2,0.1-1.8,0.3c-2.5,1-3.7,3.8-2.7,6.2c0.6,1.7,2.2,2.9,4.1,3.1c0.1,0,0.2,0,0.4,0
		c0.7,0,1.3-0.2,1.6-0.3c0,0,0.2-0.1,0.3-0.1c2.5-1,3.7-3.8,2.7-6.3C180.2,371.9,178.4,370.7,176.5,370.7z"/>
	<path class="st0" d="M268.9,332.4c-0.6,0-1.2,0.1-1.8,0.3c-1.2,0.5-2.1,1.4-2.6,2.6c-0.5,1.2-0.5,2.5-0.1,3.6
		c0.7,1.9,2.4,3.1,4.3,3.1c0,0,0,0,0,0c0.1,0,0.2,0,0.3,0c0.4,0,0.9,0,1.6-0.2c0.1,0,0.1,0,0.2-0.1c2.5-1,3.7-3.8,2.7-6.3
		C272.6,333.6,270.8,332.4,268.9,332.4z"/>
	<path class="st0" d="M231.9,347.7c-0.6,0-1.2,0.1-1.8,0.3c-2.5,1-3.7,3.8-2.7,6.2c0.7,1.8,2.5,3.1,4.5,3.1c0.7,0,1.3-0.2,1.6-0.3
		c0,0,0.2-0.1,0.3-0.1c2.5-1,3.7-3.8,2.7-6.3C235.6,348.9,233.8,347.7,231.9,347.7z"/>
	<path class="st0" d="M250.4,340.1c-0.6,0-1.2,0.1-1.8,0.3c-1.2,0.5-2.1,1.4-2.6,2.6c-0.5,1.2-0.5,2.5,0,3.7c0.7,1.6,2.2,2.7,4,3
		c0.1,0,0.3,0,0.4,0c0.7,0,1.3-0.2,1.6-0.3c0,0,0.2-0.1,0.3-0.1c1.2-0.5,2.1-1.4,2.6-2.6c0.5-1.2,0.5-2.5,0-3.7
		C254.1,341.3,252.3,340.1,250.4,340.1z"/>
	<path class="st0" d="M347.7,340.4c-0.6-0.2-1.2-0.3-1.8-0.3c-2,0-3.8,1.2-4.5,3c-1,2.5,0.2,5.3,2.7,6.3c0.1,0,0.2,0.1,0.2,0.1
		c0.3,0.1,0.7,0.3,1.4,0.3c0.2,0,0.4,0,0.6-0.1c1.8-0.1,3.4-1.3,4-3C351.4,344.2,350.2,341.4,347.7,340.4z"/>
	<path class="st0" d="M330.8,333.7c-0.6-0.2-1.2-0.3-1.8-0.3c-2,0-3.8,1.2-4.5,3c-0.5,1.2-0.5,2.5,0,3.7c0.5,1.2,1.4,2.1,2.6,2.6
		c0.1,0,0.1,0,0.2,0.1c0.7,0.2,1.3,0.2,1.7,0.2c2,0,3.8-1.2,4.4-3C334.5,337.5,333.3,334.7,330.8,333.7z"/>
	<path class="st0" d="M364.2,347.1c-0.6-0.2-1.2-0.3-1.8-0.3c-2,0-3.8,1.2-4.5,3c-1,2.4,0.2,5.2,2.6,6.2c0.6,0.3,1.1,0.4,1.7,0.4
		c0.2,0,0.4,0,0.6-0.1c1.8-0.1,3.4-1.3,4-3C367.9,350.9,366.7,348.1,364.2,347.1z"/>
	<path class="st0" d="M420,371.8c-0.5-1.2-1.4-2.1-2.6-2.6c-0.6-0.2-1.2-0.3-1.8-0.3c-2,0-3.8,1.2-4.5,3c-0.5,1.2-0.5,2.5,0,3.7
		c0.5,1.2,1.4,2.1,2.6,2.6c0.1,0,0.1,0,0.2,0.1c0.7,0.2,1.3,0.2,1.7,0.2c2,0,3.8-1.2,4.4-3C420.5,374.3,420.5,373,420,371.8z"/>
	<path class="st0" d="M399.9,361.5c-0.6-0.2-1.2-0.3-1.8-0.3c-2,0-3.8,1.2-4.5,3c-1,2.5,0.2,5.3,2.7,6.3c0.1,0,0.2,0.1,0.2,0.1
		c0.3,0.1,0.7,0.3,1.3,0.3c0.2,0,0.4,0,0.6-0.1c1.9-0.2,3.5-1.3,4.1-3C403.6,365.3,402.4,362.5,399.9,361.5z"/>
	<path class="st0" d="M381.5,353.9c-0.6-0.2-1.2-0.3-1.8-0.3c-2,0-3.8,1.2-4.5,3c-0.5,1.2-0.5,2.5,0,3.7c0.5,1.2,1.4,2.1,2.5,2.6
		c0.8,0.3,1.5,0.3,1.9,0.3c2,0,3.8-1.2,4.4-3C385.2,357.7,384,354.9,381.5,353.9z"/>
	<path class="st0" d="M568.1,445.7c0.5,0.2,1.2,0.3,1.9,0.3c0,0,0.1,0,0.1,0c2.1,0,4-1.3,4.9-3.1c0.6-1.3,0.7-2.9,0.1-4.2
		c-0.5-1.3-1.6-2.4-2.9-2.9l-118.1-50V218.9c0-0.9-0.5-1.8-1.3-2.4c-0.4-0.3-0.8-0.4-1.3-0.5l-149.7-62V26.8c0-2.9-2.4-5.3-5.3-5.3
		c0,0-0.1,0-0.1,0c-2.9,0-5.3,2.4-5.3,5.3v127.6l-147.7,61.7c-0.1,0-0.1,0-0.2,0c-0.6,0-1.1,0.2-1.6,0.5c-0.8,0.5-1.3,1.4-1.3,2.4
		v166.2L23.1,433.9c-0.1,0-0.1,0.1-0.2,0.1c-2.5,1.3-3.7,4.2-2.7,6.9c0,0,0,0.1,0.1,0.1c0.9,1.9,2.8,3.2,4.9,3.2c0,0,0.1,0,0.1,0
		c0.9,0,1.5-0.2,1.9-0.3c0.1,0,0.1,0,0.2-0.1l118.4-49.3l150.3,62.3c0.3,0.1,0.7,0.2,1.1,0.2s0.7-0.1,1.1-0.2l149.6-62l120.1,50.8
		C567.9,445.7,568,445.7,568.1,445.7z M282.7,331.4c0,0.1,0.1,0.2,0.2,0.4c0.4,0.6,0.9,1.2,1.4,1.6v101.5l-121.7-50.4
		c0.3-1.1,0.3-2.2-0.1-3.2c-0.7-1.8-2.5-3-4.5-3c-0.6,0-1.2,0.1-1.8,0.3c-0.1,0-0.1,0.1-0.2,0.1V238.2l128.3,53.2v34.4
		C282.6,327,281.9,329.3,282.7,331.4z M430.5,224.4l-129.8,53.8c-0.3-2.4-2.3-4.3-4.8-4.3c-2.1,0-4,1.4-4.6,3.4L164,224.5
		l127.8-53.4c0.8,1.5,2.4,2.5,4.2,2.5c2,0,3.8-1.3,4.5-3.1L430.5,224.4z M436.5,379.4c-0.5-1.2-1.4-2.1-2.6-2.6
		c-0.6-0.2-1.2-0.3-1.8-0.3c-2,0-3.8,1.2-4.5,3c-0.9,2.2,0,4.7,1.9,5.9L310,434.9V336c0,0,0.1,0,0.1,0.1c0.8,0.3,1.5,0.3,1.9,0.3
		c2,0,3.8-1.2,4.4-3c1-2.5-0.2-5.3-2.7-6.3c-0.6-0.2-1.2-0.3-1.8-0.3c-0.7,0-1.4,0.2-2,0.4v-35.9l128.3-53.2v143
		c-0.4,0.3-0.7,0.6-0.9,0.9l-0.6,0.3C437,381.4,436.9,380.4,436.5,379.4z"/>
</g>
</svg>
