<?xml version="1.0" encoding="utf-8"?>
<!-- Generator: Adobe Illustrator 22.1.0, SVG Export Plug-In . SVG Version: 6.00 Build 0)  -->
<svg version="1.1" id="Ebene_1" xmlns="http://www.w3.org/2000/svg" xmlns:xlink="http://www.w3.org/1999/xlink" x="0px" y="0px"
	 viewBox="0 0 626 465.9" style="enable-background:new 0 0 626 465.9;" xml:space="preserve">
<style type="text/css">
	.st0{fill:#FFFFFF;}
</style>
<polygon class="st0" points="625.6,144.2 529.5,0 478.9,0 575.2,144.4 478.7,144.4 430.5,0 386.2,0 434.3,144.4 334.1,144.4 
	334.1,0 292,0 292,144.4 196.5,144.4 244.6,0 200.3,0 152.1,144.4 51,144.4 147.2,0 96.7,0 0.4,144.4 0,144.4 0,186.5 28.6,186.5 
	28.6,465.9 70.7,465.9 70.7,186.5 551.6,186.5 551.6,465.9 593.7,465.9 593.7,186.5 626,186.5 626,144.4 625.4,144.4 "/>
</svg>
