<?xml version="1.0" encoding="utf-8"?>
<!-- Generator: Adobe Illustrator 22.1.0, SVG Export Plug-In . SVG Version: 6.00 Build 0)  -->
<svg version="1.1" id="Ebene_1" xmlns="http://www.w3.org/2000/svg" xmlns:xlink="http://www.w3.org/1999/xlink" x="0px" y="0px"
	 viewBox="0 0 512 512" style="enable-background:new 0 0 512 512;" xml:space="preserve">
<style type="text/css">
	.st0{fill:#606B71;}
</style>
<path class="st0" d="M0,352l0,128c0,17.7,14.3,32,32,32h448c17.7,0,32-14.3,32-32V32c0-17.7-14.3-32-32-32L352,0
	c-17.7,0-32,14.3-32,32v288H32C14.3,320,0,334.3,0,352z M480,457.4l-128-128V288h56c4.4,0,8-3.6,8-8v-16c0-4.4-3.6-8-8-8h-56v-48h56
	c4.4,0,8-3.6,8-8v-16c0-4.4-3.6-8-8-8h-56v-48h56c4.4,0,8-3.6,8-8v-16c0-4.4-3.6-8-8-8h-56V32h128V457.4z M32,352h64v56
	c0,4.4,3.6,8,8,8h16c4.4,0,8-3.6,8-8v-56h48v56c0,4.4,3.6,8,8,8h16c4.4,0,8-3.6,8-8v-56h48v56c0,4.4,3.6,8,8,8h16c4.4,0,8-3.6,8-8
	v-56h41.4l128,128H32V352z"/>
</svg>
