<?xml version="1.0" encoding="utf-8"?>
<!-- Generator: Adobe Illustrator 22.1.0, SVG Export Plug-In . SVG Version: 6.00 Build 0)  -->
<svg version="1.1" id="Ebene_1" xmlns="http://www.w3.org/2000/svg" xmlns:xlink="http://www.w3.org/1999/xlink" x="0px" y="0px"
	 viewBox="0 0 839.5 463.3" style="enable-background:new 0 0 839.5 463.3;" xml:space="preserve">
<style type="text/css">
	.st0{fill:#FFFFFF;}
</style>
<title>icon_TD_innen</title>
<polygon class="st0" points="785.6,0 662.2,154.3 555.4,154.3 617.1,0 571.7,0 510,154.3 441.5,154.3 441.5,0 399.4,0 399.4,154.3 
	329.8,154.3 268.1,0 222.7,0 284.4,154.3 177.3,154.3 53.9,0 0,0 157.6,197 158.7,196.2 158.7,196.4 202.6,196.4 202.6,463.3 
	244.7,463.3 244.7,196.4 592.3,196.4 592.3,463.3 634.4,463.3 634.4,196.4 682.2,196.4 682.2,196.1 682.5,196.4 839.5,0 "/>
</svg>
