<?xml version="1.0" encoding="utf-8"?>
<!-- Generator: Adobe Illustrator 22.1.0, SVG Export Plug-In . SVG Version: 6.00 Build 0)  -->
<svg version="1.1" id="Ebene_1" xmlns="http://www.w3.org/2000/svg" xmlns:xlink="http://www.w3.org/1999/xlink" x="0px" y="0px"
	 viewBox="0 0 512 512" style="enable-background:new 0 0 512 512;" xml:space="preserve">
<style type="text/css">
	.st0{fill:#F2A94E;}
</style>
<path class="st0" d="M256,143.7c-61.8,0-112,50.3-112,112.1s50.2,112.1,112,112.1s112-50.3,112-112.1S317.8,143.7,256,143.7
	L256,143.7z M256,335.9c-44.1,0-80-35.9-80-80.1s35.9-80.1,80-80.1s80,35.9,80,80.1S300.1,335.9,256,335.9z M512,255.8
	c0-5.3-2.7-10.3-7.1-13.3L422,187l19.4-97.9c1-5.2-0.6-10.7-4.4-14.4c-3.8-3.8-9.1-5.5-14.4-4.4l-97.8,19.4l-55.5-83
	c-6-8.9-20.6-8.9-26.6,0l-55.5,83L89.4,70.2c-5.3-1.1-10.6,0.6-14.4,4.4s-5.4,9.2-4.4,14.4L90,187L7.1,242.5c-4.4,3-7.1,8-7.1,13.3
	s2.7,10.3,7.1,13.3L90,324.6l-19.4,97.9c-1,5.2,0.6,10.7,4.4,14.4c3.8,3.8,9.1,5.5,14.4,4.4l97.8-19.4l55.5,83c3,4.5,8,7.1,13.3,7.1
	s10.3-2.7,13.3-7.1l55.5-83l97.8,19.4c5.4,1.2,10.7-0.6,14.4-4.4c3.8-3.8,5.4-9.2,4.4-14.4L422,324.6l82.9-55.5
	C509.3,266.1,512,261.1,512,255.8L512,255.8z M395.3,303.9c-5.4,3.6-8,10.1-6.8,16.4l16.8,84.9l-84.8-16.8
	c-6.6-1.4-12.8,1.4-16.4,6.8l-48.1,72l-48.1-71.9c-3-4.5-8-7.1-13.3-7.1c-1,0-2.1,0.1-3.1,0.3l-84.8,16.8l16.8-84.9
	c1.2-6.3-1.4-12.8-6.8-16.4l-71.9-48.1l71.9-48.2c5.4-3.6,8-10.1,6.8-16.4l-16.8-84.9l84.8,16.8c6.5,1.3,12.8-1.4,16.4-6.8l48.1-72
	l48.1,72c3.6,5.4,9.9,8.1,16.4,6.8l84.8-16.8l-16.8,84.9c-1.2,6.3,1.4,12.8,6.8,16.4l71.9,48.2L395.3,303.9L395.3,303.9z"/>
</svg>
