<?xml version="1.0" encoding="utf-8"?>
<!-- Generator: Adobe Illustrator 22.0.1, SVG Export Plug-In . SVG Version: 6.00 Build 0)  -->
<svg version="1.1" id="Ebene_1" xmlns="http://www.w3.org/2000/svg" xmlns:xlink="http://www.w3.org/1999/xlink" x="0px" y="0px"
	 viewBox="0 0 1108 588.1" style="enable-background:new 0 0 1108 588.1;" xml:space="preserve">
<style type="text/css">
	.st0{fill:#FFFFFF;}
</style>
<g id="Ebene_x0020_1">
	<path class="st0" d="M787.5,588.1L599.1,477.8H38c-20.9,0-38-17-38-38V38C0,17,17,0,38,0h1032c20.9,0,38,17,38,38v401.8
		c0,21-17,38-38,38H777.2L787.5,588.1z M38,18c-11,0-20,9-20,20v401.8c0,11,9,20,20,20H604l162.3,95l-8.9-95H1070c11,0,20-9,20-20
		V38c0-11-9-20-20-20H38z"/>
</g>
</svg>
