<?xml version="1.0" encoding="UTF-8"?>
<!-- Generator: Adobe Illustrator 22.0.1, SVG Export Plug-In . SVG Version: 6.00 Build 0)  -->
<svg enable-background="new 0 0 1024 583.6" version="1.1" viewBox="0 0 1024 583.6" xml:space="preserve" xmlns="http://www.w3.org/2000/svg" xmlns:cc="http://creativecommons.org/ns#" xmlns:dc="http://purl.org/dc/elements/1.1/" xmlns:rdf="http://www.w3.org/1999/02/22-rdf-syntax-ns#"><metadata><rdf:RDF><cc:Work rdf:about=""><dc:format>image/svg+xml</dc:format><dc:type rdf:resource="http://purl.org/dc/dcmitype/StillImage"/><dc:title>Technische Zeichnung, Mit Sparrenklaue (2)</dc:title></cc:Work></rdf:RDF></metadata>
<style type="text/css">
	.st0{fill:#AEAFB0;}
	.st1{fill:#606B71;}
	.st2{fill:#FFFFFF;}
	.st3{fill:none;}
</style>
<title>Technische Zeichnung, Mit Sparrenklaue (2)</title>

<path class="st1" d="m0 581.1z"/>

	
		<rect y="578.6" width="1024" height="5"/>
	

<path d="m121.8 168.8-3.6-40.5 672.39-57.82 2.8074-7.7373 18.812 0.14152 0.59857 49.512-18.588 1.7754-3.0554-3.3229-608.05 52.643-1.1715 44.327-5.7788 0.75205-0.27596 367.36-18.301 0.40023-0.82748-368.39-6.1173-1.0575-1.0138-40.491z" fill="#fff"/>




<path d="m810.3 39.301v11.398c0 4.4-3.6 8-8 8h-8.7871l-0.00781-0.080078-682.6 59.561 0.17382 1.9922 677.72-59.135v7.1074l-673.3 57.955 4.0996 45.4 28.301-2.4356v12.867c-2.3556 0.16254-4.2012 2.171-4.2012 4.5684 0 2.3634 1.8839 4.2586 4.2012 4.4609v19.539h6v368.4h25v-368.4h6v-19.551c2.2712-0.24826 4.0996-2.1262 4.0996-4.5488 0-2.4278-1.7518-4.311-4.0996-4.5527v-15.969l603.9-51.984v2.5059h26.5v-55.201-1-9.5-11.398h-5zm-16.633 25.768h16.764v46.371h-16.764v-46.371zm-4.8672 7.9785v35.775l-603.9 52.039v-15.861h-37v19.049l-23.801 2.0508-3.1992-35.5 667.9-57.553zm-635.87 76.896h26.93v0.05664h0.03516v11.291l-0.03516 0.0039v5.0176l0.03516-0.00391v19.113c-0.01529 0.07468-0.02323 0.15239-0.03516 0.22851v1.4883c0.01196 0.07485 0.01971 0.15102 0.03516 0.22461v18.137h-0.03516v0.05664h-26.93v-0.05664h-0.03516v-36.867l0.03516-0.0039v-5.0156l-0.03516 0.00391v-13.617h0.03516v-0.05664zm5.9648 60.557h15v363.4h-15v-363.4z"/>
































































<path id="_Zusammengesetzter_Pfad_" d="m348.6 363.9c1.8-2 4.1-4 3.3-6.8-1.5-4.9-6-8.6-8.7-12.7 1-0.7 1.5-1.9 1.3-3.7 0-0.5-0.8-0.5-1-0.1-1.6 3.3-7 0.4-6.3-2.9 1.5 0.6 3 1.3 4.5 1.8h0.1c0.3 0 0.5-0.3 0.5-0.6v-0.1c-0.8-3.3-3-6.2-6-7.9 1.3-1.3 1.8-3.3 0.8-6.2-0.2-0.4-0.8-0.6-1-0.1-4 1.9-6 1.4-6-1.8-0.2-1.2-0.4-2.3-0.4-3.5-0.1-1.7 0-3.5-0.3-5.2-0.1-2.6-0.7-5.1-1.7-7.5-1.8-3.7-5.4-6-9.1-7.2-3.5-3.5-8.8-4.5-13.4-2.6-5.8 2.2-11.3 8.2-12.2 14.7-0.5 4-0.1 10 3.5 12.3 0.3 2.5 1.1 5.5 2.7 7.2 0.5 1.1 1.1 2.1 1.9 3.1 1.5 2 3.3 4 5.7 4.3 0.1 1.2 0.3 2.4 0.5 3.6-5.2 0.1-12 1.5-14.6 6.4-1.2-3.9-3.7-7.3-7-9.6-4.6-3.6-17.2-7.4-19.2-14 0.1-2 0.4-3.9 0.4-5.8 0.9-0.1 1.7-0.6 2.2-1.4 1-1.4 0.8-3.1 1.1-4.7 0.3-1 0.4-2.1 0.4-3.2-0.3-1.5-1.1-2.9-2.8-2.6-0.1 0-0.2 0-0.3 0.1 0-4.4-0.3-8.8-3.3-11.7-3.4-3.3-8.1-4.9-12.9-4.3-9.5 1-11.8 8-11.6 16-0.2-0.6-0.5-1.2-0.7-1.8-1.8-4.4-3.8-7-8.6-6.5-8.7 0.9-14.3 8.3-12.3 17.1-0.3 0-0.5 0.1-0.8 0.2-1 0.7-1.4 1.9-1.1 3.1 0.2 0.9 0.5 1.8 0.8 2.6 0.1 1 0.2 1.9 0.5 2.8 0.3 0.5 0.8 0.9 1.4 0.9 0.3 1.6 0.9 3.1 1.9 4.3-1.3 0.8-2.8 0.5-4.2 1.1-1.5 0.6-2.7 1.6-3.7 2.9-3 3.8-3.4 9.5-4.1 14.2-0.4 3-0.7 5.5 1 7.9 1.5 2 2.4 2.3 3.8 2 0.1 0.9 0.3 1.8 0.5 2.7 0.3 1.4 0 3.7 1 5l0.1 0.1c-0.2 0.7-0.3 1.5-0.4 2.2-3.7 6.1-9.1 13.3-7.6 19.8s8.8 9.9 14.5 12c0 0.1 0 0.3 0.1 0.4-0.6 3.1-2.4 5.6-3.6 8.5s-2 5.9-3.1 8.9c-0.7 1.9-1.6 4.2-1 6.2-2.2 1.4-3.7 3.8-4 6.5-0.2 1.2 0.3 2.4 1.2 3.2 0.9 0.4 1.8 0.8 2.7 1 1.6 0.7 3.1 1.5 4.5 2.5 1.3 0.8 4.4 4.3 6.3 3.3 0.2 20 1.2 39.2 6 58.9-1.8 5.9-2.5 12-1.9 18.2 0.4 5 1.9 9.6 3.3 14.2-0.2 6-3.7 10.6-4.5 16.4-0.4 3.3-0.1 6.7 1 9.9-0.4 0.6-0.8 1.2-1.3 1.9-3.2 1.8-6.7 3-10.3 3.4-1.3 0.2-3 0.2-3.9 1.3-1.4 1.6-0.9 3.2 0.4 4.5 2.5 2.6 8.5 2.9 11.7 2.6s6.6-1.5 9.9-2.4c2.8-0.7 4.5-2.1 6.8-3.2 0.3 3.6 2.5 3.5 6.3 2.5 3-0.8 5.6-3.6 3.4-7.5-0.1-0.3-0.4-0.6-0.6-0.8 3.6-8.6 2-21.9 2.1-30.4 0.1-11.9 0.2-24.2-2.9-35.6 0.7-3.8 1.6-7.7 1.9-11.6 0.1-1.3 0.3-2.5 0.3-3.8 0.6 3.6 1.3 7.1 1.8 10.6 0.8 5 2.3 10 4.3 14.6 0.4 12.3 2.2 24.6 2.5 36.9 0.2 8.8 0 16.3 2.7 24.4-2 2.8-2.9 8.6-0.5 10.7 2 1.9 5.5 1.6 8 1.2s6.1-1 7.9-3.3c1.8-2.4 2-5.7 0.3-8.3 7.1-6.5 3-22.3 2.5-30.4-0.7-11.4-1.6-22.5-3.2-33.5 0.7-4.9 1.1-9.8 1.3-14.7 0.2-6.2-1-11.6-1.7-17.3 0.6-2.1 1-4.3 1.3-6.5 0.5-5.8-0.8-12-1.4-17.8-0.9-10.3-3.3-22.8-2.1-33.5 4-1.5 8-4.2 6.3-9.4 1.5 1.6 6.6 0.8 8.1-0.3-0.7 27.6-2.2 54 7.1 80.3 0 1.5 0.1 2.9 0 4.3-0.2 2.7-1.9 6.1-1.2 8.8 0.6 2.2 2.7 2.6 4.8 2.6 0.1 1.6 0.3 3.2 0.6 4.7 0.3 2.1 0.4 4.3 0.8 6.5-0.3 5.4 1.6 10.9 2.5 16.3 1.5 7.9 2.8 15.9 4.3 23.8-1 3.6-2.1 7.2-3.3 10.7-0.3 0.8-0.8 1.8-1.1 2.7-3.2 2.5-8.3 5.7-7.1 10 0.7 2.3 3.1 2.8 5.1 3 2.8 0.2 5.6-0.3 8.2-1.4 1 2 2.6 2.6 4.8 3 3.2 0.5 7.4 1.5 10.5 0.4 7.8-2.6 3.6-12.1 6.4-17.9l1.5 5.1c0.4 1.4 0.5 4.4 1.2 5.5 0.5 0.8 1.1 1.5 2 0.5 1.3-1.4-0.3-4.5-0.6-6-0.5-1.9-0.3-3.8-0.9-5.7-0.3-0.8-0.6-1.7-0.9-2.5 1-2.5 2.3-5.1 1.5-7.7-1.2-3.8-5.6-5.3-7.7-8.4-0.4-0.7-0.8-1.3-1.2-2 0.4-1.7 0.5-3.5 0.4-5.3-0.1-1.1-0.3-2.1-0.6-3.2 0-4.9-0.3-9.9-0.9-14.8-0.7-5.5-2.9-10.5-3.8-15.8 0 0 0-0.1-0.1-0.1 0-0.9-0.4-1.8-0.9-2.6 4.5-1.1 3.8-6 4.8-11.9 1.8-10.6 5.1-21 6.8-31.6 3.6-6.6 6-13.8 6.9-21.3 0.4-4.5 0.6-9 0.5-13.5 0-5.1-1.4-9.5-2.5-14.1 0.6-2.6 1.2-5.3 1.9-7.8 2.6-5.6 3.7-13.1 4.2-20.1 2.1-0.4 4.6-0.4 5.7-2.4 0.7-1.3 0.2-2.7-0.3-4-0.6-1.8-1.1-4.1-1.4-6.4zm-123.5 65.5v-0.6 0.6zm21.4-92.9c-0.9 0.9-1.9 1.6-2.8 2.4-0.4-1.2-1-2.4-1.7-3.5-1.5-2.1-4-3.3-6.6-3.1-0.3-0.1-0.7-0.2-1-0.3h-0.1c-0.3-0.5-0.5-1-0.6-1.6 1.5-1.2 2.8-2.7 3.8-4.4 2.5 0.6 2.1-3.4 3.1-5.4 0.5-1.1 1.2-2.7-0.4-3.3-0.2-0.1-0.4-0.1-0.6-0.1 0.4-0.6 0.8-1.1 1.1-1.7 0.3 0.9 0.7 1.8 0.9 2.6 0.5 1.8 0.7 4.8 2.4 5.2 0.4 1.4 1.1 2.7 2 3.8 0.9 1 2 1.9 3.3 2.6-0.5 2.7-1.1 5.1-2.8 6.8zm40.4 50.6c-0.9 0.9-1.8 1.7-2.9 2.4 0.7-1 1.3-2.2 2-3.5s1.2-2.4 1.7-3.6c-0.3 1.6-0.6 3.1-0.8 4.7zm34.5 37c-0.1 0.7-0.3 1.4-0.4 2s-0.2 1.1-0.3 1.7c1.3-9.5 4.5-18.8 7.5-27.7-2.6 7.8-5.2 15.8-6.8 24z"/>
</svg>
