<?xml version="1.0" encoding="utf-8"?>
<!-- Generator: Adobe Illustrator 22.0.1, SVG Export Plug-In . SVG Version: 6.00 Build 0)  -->
<svg version="1.1" id="Ebene_1" xmlns="http://www.w3.org/2000/svg" xmlns:xlink="http://www.w3.org/1999/xlink" x="0px" y="0px"
	 viewBox="0 0 1024 583.6" style="enable-background:new 0 0 1024 583.6;" xml:space="preserve">
<style type="text/css">
	.st0{fill:#FFFFFF;}
	.st1{fill:#AEAFB0;}
	.st2{fill:#606B71;}
	.st3{fill:none;}
</style>
<path class="st0" d="M119.6,171.5l-4.1-45.4l688.9-59.3l4.1,45.4L119.6,171.5z"/>
<title>Technische Zeichnung, Ohne Sparrenklaue 3</title>
<rect x="815.4" y="0" class="st1" width="75" height="578.6"/>
<path class="st2" d="M0,581.1L0,581.1z"/>
<g>
	<g>
		<g>
			<rect y="578.6" width="1024" height="5"/>
		</g>
	</g>
</g>
<path d="M119.6,171.5l-4.1-45.4l688.9-59.3l4.1,45.4L119.6,171.5z M120.9,130.6l3.2,35.5L803,107.6l-3.2-35.5L120.9,130.6z"/>
<rect x="791.3" y="62.7" class="st0" width="21.5" height="51.3"/>
<path d="M815.3,116.4h-26.5V60.2h26.5V116.4z M793.8,111.4h16.5V65.2h-16.5V111.4z"/>
<rect x="156.4" y="197.4" class="st0" width="20" height="379"/>
<path d="M178.9,578.9h-25v-384h25V578.9z M158.9,573.9h15v-374h-15V573.9z"/>
<rect x="150.4" y="168.3" class="st0" width="32" height="39.8"/>
<path d="M184.9,210.5h-37v-44.8h37V210.5z M152.9,205.5h27v-34.8h-27V205.5z"/>
<g>
	<g>
		<g>
			<path class="st2" d="M146.2,186.4c0-1.1,0.9-2.1,2.1-2.1c1.1,0,2.1,0.9,2.1,2.1s-0.9,2.1-2.1,2.1l0,0
				C147.2,188.5,146.2,187.6,146.2,186.4"/>
			<path d="M148.3,191c-2.5,0-4.6-2-4.6-4.5l0,0c0-2.5,2-4.6,4.5-4.6s4.6,2,4.6,4.5C152.9,188.9,150.8,191,148.3,191z M147.9,186.4
				c0,0.2,0.2,0.4,0.4,0.4l0,0c0.2,0,0.4-0.2,0.4-0.4H147.9z M148.3,186c-0.2,0-0.4,0.2-0.4,0.4l0,0h0.9
				C148.7,186.2,148.5,186,148.3,186z"/>
			<path class="st2" d="M182.4,186.4c0-1.1,0.9-2.1,2.1-2.1s2.1,0.9,2.1,2.1c0,1.1-0.9,2.1-2.1,2.1l0,0
				C183.3,188.5,182.4,187.6,182.4,186.4"/>
			<path d="M184.4,191c-2.5,0-4.6-2-4.6-4.6s2-4.6,4.6-4.6s4.6,2,4.6,4.6S186.9,191,184.4,191z M184.4,186c-0.2,0-0.4,0.2-0.4,0.4
				s0.2,0.4,0.4,0.4s0.4-0.2,0.4-0.4S184.7,186,184.4,186z"/>
			<line class="st3" x1="111" y1="119.1" x2="793.6" y2="59.7"/>
			
				<rect x="109.7" y="88.4" transform="matrix(0.9962 -8.692719e-02 8.692719e-02 0.9962 -6.0591 39.655)" width="685.2" height="2"/>
			<path d="M802.3,63.7v-5c4.4,0,8-3.6,8-8h5C815.3,57.8,809.5,63.7,802.3,63.7z"/>
			<rect x="810.3" y="41.9" width="5" height="9"/>
			<rect x="793.5" y="58.7" width="9" height="5"/>
			<line class="st3" x1="812.8" y1="39.3" x2="812.8" y2="61.2"/>
			<rect x="810.3" y="39.3" width="5" height="21.9"/>
		</g>
	</g>
</g>
<path class="st0" d="M942.3,568.9l-1-447L942.3,568.9z"/>
<rect x="941.4" y="121.9" transform="matrix(1 -2.191243e-03 2.191243e-03 1 -0.7546 2.0648)" class="st0" width="1" height="447"/>
<polygon class="st0" points="942.3,577.6 947.3,567.6 937.3,567.6 "/>
<path class="st0" d="M942.3,578.8l-5.8-11.6h11.6L942.3,578.8z M938.2,568.1l4.2,8.4l4.2-8.4H938.2z"/>
<polygon class="st0" points="941.3,116.9 936.3,126.9 946.3,126.9 "/>
<path class="st0" d="M947.1,127.4h-11.6l5.8-11.6L947.1,127.4z M937.1,126.4h8.4l-4.2-8.4L937.1,126.4z"/>
<path class="st2" d="M936.3,115.4L936.3,115.4z"/>
<rect x="936.3" y="114.9" class="st0" width="10" height="1"/>
<polygon class="st0" points="941.2,40.9 936.2,50.9 946.2,50.9 "/>
<path class="st0" d="M947,51.4h-11.6l5.8-11.6L947,51.4z M937,50.4h8.4l-4.2-8.4L937,50.4z"/>
<path class="st2" d="M936.2,39.4L936.2,39.4z"/>
<rect x="936.2" y="38.9" class="st0" width="10" height="1"/>
<path class="st0" d="M941.2,103.9L941.2,103.9z"/>
<rect x="940.7" y="50.9" class="st0" width="1" height="53"/>
<polygon class="st0" points="941.3,113.9 946.3,103.9 936.3,103.9 "/>
<path class="st0" d="M941.3,115l-5.8-11.6h11.6L941.3,115z M937.1,104.4l4.2,8.4l4.2-8.4H937.1z"/>
<path class="st0" d="M119.8,15.6L119.8,15.6z"/>
<rect x="119.8" y="15.1" class="st0" width="683.3" height="1"/>
<polygon class="st0" points="813.1,15.6 803.1,10.6 803.1,20.6 "/>
<path class="st0" d="M802.6,21.4V9.8l11.6,5.8L802.6,21.4z M803.6,11.4v8.4l8.4-4.2L803.6,11.4z"/>
<path class="st0" d="M814.6,21.1L814.6,21.1z"/>
<rect x="814.1" y="11.1" class="st0" width="1" height="10"/>
<polygon class="st0" points="109.3,15.6 119.3,20.6 119.3,10.6 "/>
<path class="st0" d="M119.8,21.4l-11.6-5.8l11.6-5.8V21.4z M110.4,15.6l8.4,4.2v-8.4L110.4,15.6z"/>
<path class="st0" d="M108.3,20.6L108.3,20.6z"/>
<rect x="107.8" y="10.6" class="st0" width="1" height="10"/>
<polygon class="st0" points="79.1,42.3 74.1,52.3 84.1,52.3 "/>
<path class="st0" d="M84.9,52.8H73.3l5.8-11.6L84.9,52.8z M74.9,51.8h8.4l-4.2-8.4L74.9,51.8z"/>
<polygon class="st0" points="79.1,206.8 84.1,196.8 74.1,196.8 "/>
<path class="st0" d="M79.1,207.9l-5.8-11.6h11.6L79.1,207.9z M74.9,197.3l4.2,8.4l4.2-8.4H74.9z"/>
<path class="st2" d="M79.1,198.8L79.1,198.8z"/>
<rect x="78.6" y="52.4" class="st0" width="1" height="146.4"/>
<path class="st0" d="M74.1,40.8L74.1,40.8z"/>
<rect x="74.1" y="40.3" class="st0" width="10" height="1"/>
<polygon class="st0" points="79.1,206.8 84.1,196.8 74.1,196.8 "/>
<path class="st0" d="M79.1,207.9l-5.8-11.6h11.6L79.1,207.9z M74.9,197.3l4.2,8.4l4.2-8.4H74.9z"/>
<path class="st2" d="M79.1,569.7L79.1,569.7z"/>
<rect x="78.6" y="220" class="st0" width="1" height="349.7"/>
<polygon class="st0" points="79.1,210 74.1,220 84.1,220 "/>
<path class="st0" d="M84.9,220.5H73.3l5.8-11.6L84.9,220.5z M74.9,219.5h8.4l-4.2-8.4L74.9,219.5z"/>
<path class="st0" d="M74.1,208.5L74.1,208.5z"/>
<rect x="74.1" y="208" class="st0" width="10" height="1"/>
<polygon class="st0" points="79.1,578.7 84.1,568.7 74.1,568.7 "/>
<path class="st0" d="M79.1,579.8l-5.8-11.6h11.6L79.1,579.8z M74.9,569.2l4.2,8.4l4.2-8.4H74.9z"/>
<path class="st2" d="M35.2,580.6L35.2,580.6z"/>
<path class="st2" d="M816.8,115.4L816.8,115.4z"/>
<path d="M932.4,116h-5c-0.3,0-0.6-0.3-0.6-0.6s0.3-0.6,0.6-0.6h5c0.3,0,0.6,0.3,0.6,0.6S932.7,116,932.4,116z M916.4,116h-5
	c-0.3,0-0.6-0.3-0.6-0.6s0.3-0.6,0.6-0.6h5c0.3,0,0.6,0.3,0.6,0.6S916.7,116,916.4,116z M900.4,116h-5c-0.3,0-0.6-0.3-0.6-0.6
	s0.3-0.6,0.6-0.6h5c0.3,0,0.6,0.3,0.6,0.6S900.7,116,900.4,116z M884.4,116h-5c-0.3,0-0.6-0.3-0.6-0.6s0.3-0.6,0.6-0.6h5
	c0.3,0,0.6,0.3,0.6,0.6S884.7,116,884.4,116z M868.4,116h-5c-0.3,0-0.6-0.3-0.6-0.6s0.3-0.6,0.6-0.6h5c0.3,0,0.6,0.3,0.6,0.6
	S868.7,116,868.4,116z M852.4,116h-5c-0.3,0-0.6-0.3-0.6-0.6s0.3-0.6,0.6-0.6h5c0.3,0,0.6,0.3,0.6,0.6S852.7,116,852.4,116z
	 M836.4,116h-5c-0.3,0-0.6-0.3-0.6-0.6s0.3-0.6,0.6-0.6h5c0.3,0,0.6,0.3,0.6,0.6S836.7,116,836.4,116z M820.4,116h-3.5
	c-0.3,0-0.6-0.3-0.6-0.6s0.3-0.6,0.6-0.6h3.5c0.3,0,0.6,0.3,0.6,0.6S820.7,116,820.4,116z"/>
<path class="st2" d="M88.8,208.4l57.4-0.7L88.8,208.4z"/>
<path d="M88.8,209c-0.3,0-0.6-0.3-0.6-0.6s0.3-0.6,0.6-0.6l5-0.1c0.3,0,0.6,0.3,0.6,0.6s-0.3,0.6-0.6,0.6L88.8,209L88.8,209z
	 M104.8,208.8c-0.3,0-0.6-0.3-0.6-0.6s0.3-0.6,0.6-0.6l5-0.1c0.4,0,0.6,0.3,0.6,0.6s-0.3,0.6-0.6,0.6L104.8,208.8L104.8,208.8z
	 M120.8,208.6c-0.3,0-0.6-0.3-0.6-0.6s0.3-0.6,0.6-0.6l5-0.1c0.3,0,0.6,0.3,0.6,0.6s-0.3,0.6-0.6,0.6L120.8,208.6L120.8,208.6z
	 M136.8,208.4c-0.3,0-0.6-0.3-0.6-0.6s0.3-0.6,0.6-0.6l5-0.1c0.3,0,0.6,0.3,0.6,0.6s-0.3,0.6-0.6,0.6L136.8,208.4L136.8,208.4z"/>
<path class="st2" d="M818.1,39.5l114.3-0.2L818.1,39.5z"/>
<path d="M818.1,40.1c-0.3,0-0.6-0.3-0.6-0.6s0.3-0.6,0.6-0.6h5l0,0c0.3,0,0.6,0.3,0.6,0.6s-0.3,0.6-0.6,0.6H818.1L818.1,40.1z
	 M834.1,40.1c-0.3,0-0.6-0.3-0.6-0.6s0.3-0.6,0.6-0.6h5l0,0c0.3,0,0.6,0.3,0.6,0.6s-0.3,0.6-0.6,0.6H834.1L834.1,40.1z M850.1,40.1
	c-0.3,0-0.6-0.3-0.6-0.6s0.3-0.6,0.6-0.6h5l0,0c0.3,0,0.6,0.3,0.6,0.6s-0.3,0.6-0.6,0.6H850.1L850.1,40.1z M866.1,40.1
	c-0.3,0-0.6-0.3-0.6-0.6s0.3-0.6,0.6-0.6h5l0,0c0.3,0,0.6,0.3,0.6,0.6s-0.3,0.6-0.6,0.6H866.1L866.1,40.1z M882.1,40
	c-0.3,0-0.6-0.3-0.6-0.6s0.3-0.6,0.6-0.6h5l0,0c0.3,0,0.6,0.3,0.6,0.6s-0.3,0.6-0.6,0.6H882.1L882.1,40z M898.1,40
	c-0.3,0-0.6-0.3-0.6-0.6s0.3-0.6,0.6-0.6h5l0,0c0.3,0,0.6,0.3,0.6,0.6s-0.3,0.6-0.6,0.6H898.1L898.1,40z M914.1,40
	c-0.3,0-0.6-0.3-0.6-0.6s0.3-0.6,0.6-0.6h5l0,0c0.3,0,0.6,0.3,0.6,0.6s-0.3,0.6-0.6,0.6H914.1L914.1,40z M930.1,40
	c-0.3,0-0.6-0.3-0.6-0.6s0.3-0.6,0.6-0.6h2.3l0,0c0.3,0,0.6,0.3,0.6,0.6s-0.3,0.6-0.6,0.6H930.1L930.1,40z"/>
<path id="_Zusammengesetzter_Pfad_" d="M339.2,364c1.7-2,4-4,3.2-6.8c-1.4-4.9-5.8-8.6-8.4-12.7c1-0.7,1.5-1.8,1.2-3.6
	c0-0.3-0.3-0.4-0.6-0.4c-0.2,0-0.3,0.1-0.3,0.3c-1.6,3.3-6.7,0.4-6.1-2.9c1.5,0.6,2.9,1.3,4.4,1.8h0.1c0.3,0,0.5-0.3,0.5-0.6V339
	c-1-3.4-2.9-6.4-5.8-7.9c1.3-1.3,1.8-3.3,0.7-6.2c-0.2-0.4-0.7-0.6-0.9-0.1c-3.9,1.9-5.8,1.4-5.8-1.8c-0.2-1.2-0.4-2.3-0.4-3.5
	c-0.1-1.7,0-3.5-0.2-5.2c-0.1-2.6-0.7-5.1-1.6-7.5c-1.7-3.7-5.2-6-8.8-7.2l0,0c-3.4-3.5-8.5-4.5-13-2.6c-5.5,2.2-10.9,8.2-11.7,14.7
	c-0.5,4-0.1,10,3.4,12.3c0.2,2.6,1,5.5,2.6,7.2c0.5,1.1,1.1,2.1,1.8,3.1c1.5,2,3.2,4,5.5,4.3l0,0c0.1,1.2,0.3,2.4,0.5,3.6
	c-5,0.1-11.5,1.5-14.1,6.4c-1.1-3.8-3.5-7.2-6.7-9.6c-4.5-3.6-16.6-7.4-18.6-14c0.1-2,0.4-3.9,0.4-5.8c0.9-0.1,1.7-0.6,2.1-1.4
	c0.9-1.4,0.8-3.1,1.1-4.7c0.3-1,0.4-2.1,0.4-3.1c-0.2-1.5-1.1-2.9-2.7-2.6c-0.1,0-0.2,0-0.3,0.1c0-4.4-0.3-8.8-3.2-11.7
	c-3.2-3.3-7.8-4.9-12.4-4.3c-9.2,1-11.4,8-11.2,15.9c-0.2-0.6-0.5-1.2-0.7-1.8c-1.8-4.4-3.7-7-8.3-6.5c-8.4,0.9-13.8,8.3-11.9,17.1
	c-0.3,0-0.5,0.1-0.7,0.2c-1,0.6-1.2,1.9-1,3.1c0.2,0.9,0.4,1.8,0.8,2.6c0.1,1,0.2,1.9,0.5,2.8c0.2,0.5,0.8,0.9,1.4,0.9
	c0.3,1.6,0.9,3,1.9,4.3c-1.2,0.8-2.7,0.5-4,1c-1.4,0.6-2.6,1.6-3.6,2.9c-2.9,3.8-3.3,9.5-3.9,14.2c-0.4,2.9-0.7,5.5,1,7.9
	c1.4,2,2.3,2.3,3.6,2c0.1,0.9,0.3,1.8,0.5,2.7c0.2,1.4,0,3.7,1,5l0.1,0.1c-0.2,0.7-0.3,1.5-0.4,2.2c-3.6,6.1-8.8,13.3-7.3,19.8
	s8.4,9.9,14,12c0,0.1,0,0.2,0.1,0.4c-0.6,3.1-2.3,5.6-3.5,8.5s-1.9,5.9-3,8.9c-0.7,1.9-1.5,4.2-1,6.2c-2.2,1.5-3.6,3.8-3.9,6.5
	c-0.2,1.2,0.2,2.4,1.2,3.2c0.8,0.4,1.7,0.8,2.6,1c1.5,0.7,2.9,1.5,4.3,2.5c1.3,0.8,4.3,4.3,6.1,3.3c0.2,20,1.1,39.2,5.8,58.9
	c-1.7,5.9-2.4,12-1.8,18.1c0.4,5,1.8,9.6,3.2,14.2l0,0c-0.2,6-3.5,10.6-4.4,16.4c-0.4,3.3-0.1,6.7,0.9,9.8c-0.4,0.6-0.8,1.2-1.2,1.9
	l0,0c-3,1.8-6.4,3-9.9,3.4c-1.2,0.2-2.9,0.2-3.8,1.3c-1.4,1.6-0.8,3.2,0.4,4.5c2.4,2.7,8.2,2.9,11.3,2.7s6.4-1.5,9.5-2.4
	c2.7-0.7,4.4-2.1,6.5-3.2c0.2,3.6,2.4,3.5,6,2.5c2.9-0.8,5.4-3.6,3.3-7.5c-0.1-0.3-0.3-0.6-0.6-0.8c3.5-8.6,1.9-21.9,2-30.4
	c0.1-11.9,0.1-24.2-2.8-35.6c0.7-3.8,1.5-7.6,1.9-11.5c0.1-1.3,0.3-2.5,0.3-3.8c0.6,3.6,1.3,7.1,1.7,10.6c0.8,5,2.2,9.9,4.2,14.6
	c0.4,12.3,2.1,24.5,2.4,36.9c0.2,8.8,0,16.3,2.6,24.4c-2,2.8-2.8,8.6-0.5,10.7c2,1.9,5.3,1.6,7.7,1.2s5.9-1,7.6-3.3
	c1.8-2.4,1.9-5.7,0.3-8.3c6.9-6.5,2.9-22.3,2.4-30.4c-0.7-11.4-1.5-22.4-3.1-33.5c0.6-4.9,1.1-9.8,1.3-14.7
	c0.2-6.2-0.9-11.6-1.6-17.3c0.6-2.1,1-4.3,1.2-6.5c0.5-5.8-0.8-12-1.3-17.8c-0.9-10.3-3.2-22.8-2-33.5c3.9-1.5,7.8-4.2,6-9.4
	c1.5,1.6,6.4,0.8,7.9-0.3c-0.7,27.6-2.1,54,6.8,80.3c0,1.5,0.1,2.9,0,4.3c-0.2,2.7-1.9,6-1.1,8.8c0.6,2.2,2.6,2.6,4.6,2.6
	c0.1,1.6,0.3,3.2,0.6,4.7c0.3,2.1,0.4,4.3,0.8,6.5c-0.3,5.4,1.5,10.9,2.5,16.3c1.4,7.9,2.7,15.9,4.1,23.8c-0.9,3.6-2,7.2-3.2,10.7
	c-0.3,0.8-0.7,1.8-1,2.7c-3.1,2.5-8,5.7-6.9,10c0.6,2.3,3,2.8,5,3c2.7,0.2,5.4-0.3,7.9-1.4c1,2,2.5,2.6,4.7,3
	c3.1,0.5,7.1,1.5,10.2,0.4c7.5-2.6,3.5-12.1,6.2-17.9c0.5,1.7,1,3.4,1.4,5c0.4,1.4,0.5,4.4,1.2,5.5c0.5,0.7,1.1,1.5,2,0.5
	c1.2-1.4-0.2-4.5-0.6-6c-0.4-1.9-0.3-3.8-0.9-5.7c-0.2-0.8-0.5-1.7-0.9-2.5c1-2.5,2.3-5.1,1.5-7.7c-1.1-3.8-5.4-5.3-7.5-8.4
	c-0.4-0.7-0.8-1.3-1.1-2c0.4-1.7,0.5-3.5,0.4-5.2c-0.1-1.1-0.3-2.1-0.6-3.2c0-4.9-0.3-9.9-0.9-14.8c-0.7-5.5-2.8-10.5-3.7-15.8
	c0,0,0-0.1-0.1-0.1c0-0.9-0.3-1.8-0.9-2.6c4.3-1.1,3.7-6,4.6-11.8c1.6-10.6,4.7-21,6.4-31.6c3.5-6.6,5.8-13.8,6.7-21.3
	c0.4-4.5,0.6-9,0.5-13.5c0-5.1-1.4-9.5-2.5-14.1c0.5-2.6,1.2-5.3,1.8-7.8c2.5-5.6,3.5-13.1,4-20.1l0,0c2-0.4,4.4-0.4,5.5-2.4
	c0.7-1.3,0.2-2.7-0.2-4C340,368.6,339.5,366.3,339.2,364z M220,429.5c0-0.2,0-0.4,0-0.6l0,0V429.5z M240.7,336.7
	c-0.9,0.9-1.9,1.6-2.7,2.4c-0.4-1.2-0.9-2.4-1.6-3.5c-1.4-2.1-3.9-3.3-6.4-3.1c-0.3-0.1-0.7-0.2-1-0.3h-0.1c-0.3-0.5-0.4-1-0.5-1.6
	c1.5-1.2,2.7-2.7,3.7-4.4c2.5,0.6,2.1-3.4,3-5.4c0.5-1.1,1.1-2.7-0.4-3.3c-0.2-0.1-0.4-0.1-0.6-0.1c0.4-0.6,0.7-1.1,1-1.7
	c0.3,0.9,0.7,1.8,0.9,2.6c0.5,1.8,0.7,4.8,2.3,5.2c0.4,1.4,1.1,2.7,2,3.8c0.9,1,2,1.9,3.1,2.6C242.8,332.5,242.3,334.9,240.7,336.7
	L240.7,336.7z M279.7,387.2L279.7,387.2c-0.8,0.9-1.8,1.7-2.8,2.4c0.7-1.1,1.3-2.2,1.9-3.5s1.1-2.4,1.6-3.7
	C280.1,384.1,279.8,385.7,279.7,387.2L279.7,387.2z M313,424.2c-0.1,0.7-0.3,1.3-0.4,2c-0.1,0.6-0.2,1.1-0.3,1.7
	c1.3-9.5,4.3-18.8,7.3-27.7C317,408,314.4,416,313,424.2L313,424.2z"/>
</svg>
