<svg id="Ebene_1" data-name="Ebene 1" xmlns="http://www.w3.org/2000/svg" xmlns:xlink="http://www.w3.org/1999/xlink" viewBox="0 0 1024 583.62"><defs><style>.cls-1,.cls-10,.cls-5,.cls-7,.cls-8,.cls-9{fill:none;}.cls-2{fill:#aeafb0;}.cls-3{fill:#606b71;}.cls-4{clip-path:url(#clip-path);}.cls-5,.cls-7,.cls-9{stroke:#000;}.cls-10,.cls-5,.cls-7,.cls-8,.cls-9{stroke-miterlimit:10;}.cls-5{stroke-width:5px;}.cls-6{fill:#fff;}.cls-7{stroke-width:2px;}.cls-10,.cls-8{stroke:#606b71;}.cls-10,.cls-9{stroke-linecap:round;}.cls-9{stroke-width:1.25px;stroke-dasharray:5 11 5 11 5 11;}</style><clipPath id="clip-path" transform="translate(0 -35.07)"><rect class="cls-1" width="1024" height="768"/></clipPath></defs><title>Technische Zeichnung, Mit Sparrenklaue (2)</title><rect class="cls-2" x="815.36" width="75" height="578.61"/><path class="cls-3" d="M0,616.19H0Z" transform="translate(0 -35.07)"/><g class="cls-4"><line class="cls-5" y1="581.12" x2="1024" y2="581.12"/></g><polygon class="cls-6" points="121.82 168.75 118.21 128.31 802.1 69.41 805.72 109.86 121.82 168.75"/><polygon class="cls-5" points="121.82 168.75 118.21 128.31 802.1 69.41 805.72 109.86 121.82 168.75"/><rect class="cls-6" x="791.34" y="62.68" width="21.5" height="51.25"/><rect class="cls-5" x="791.34" y="62.68" width="21.5" height="51.25"/><rect class="cls-6" x="156.36" y="197.39" width="20" height="379"/><rect class="cls-5" x="156.36" y="197.39" width="20" height="379"/><rect class="cls-6" x="150.36" y="147.5" width="32" height="60.5"/><rect class="cls-5" x="150.36" y="147.5" width="32" height="60.5"/><g class="cls-4"><path class="cls-3" d="M146.23,221.51a2.07,2.07,0,1,1,2.07,2.06,2.07,2.07,0,0,1-2.07-2.06" transform="translate(0 -35.07)"/><path class="cls-5" d="M146.23,221.51a2.07,2.07,0,1,1,2.07,2.06A2.07,2.07,0,0,1,146.23,221.51Z" transform="translate(0 -35.07)"/><path class="cls-3" d="M182.36,221.51a2.06,2.06,0,1,1,2.06,2.06,2.06,2.06,0,0,1-2.06-2.06" transform="translate(0 -35.07)"/><path class="cls-5" d="M182.36,221.51a2.06,2.06,0,1,1,2.06,2.06A2.06,2.06,0,0,1,182.36,221.51Z" transform="translate(0 -35.07)"/><line class="cls-3" x1="110.96" y1="119.09" x2="793.57" y2="59.68"/><line class="cls-7" x1="110.96" y1="119.09" x2="793.57" y2="59.68"/><path class="cls-5" d="M812.81,85.75a10.5,10.5,0,0,1-10.5,10.5" transform="translate(0 -35.07)"/><line class="cls-5" x1="812.81" y1="41.88" x2="812.81" y2="50.88"/><line class="cls-5" x1="802.47" y1="61.18" x2="793.47" y2="61.18"/><line class="cls-6" x1="812.84" y1="39.26" x2="812.84" y2="61.2"/><line class="cls-5" x1="812.84" y1="39.26" x2="812.84" y2="61.2"/></g><path class="cls-3" d="M942.34,604l-1-447Z" transform="translate(0 -35.07)"/><line class="cls-8" x1="941.36" y1="121.89" x2="942.34" y2="568.89"/><polygon class="cls-3" points="942.35 577.64 947.35 567.64 937.35 567.64 942.35 577.64"/><polygon class="cls-8" points="942.35 577.64 947.35 567.64 937.35 567.64 942.35 577.64"/><polygon class="cls-3" points="941.34 116.89 936.34 126.89 946.34 126.89 941.34 116.89"/><polygon class="cls-8" points="941.34 116.89 936.34 126.89 946.34 126.89 941.34 116.89"/><path class="cls-3" d="M936.34,150.46h0Z" transform="translate(0 -35.07)"/><line class="cls-8" x1="936.34" y1="115.39" x2="946.34" y2="115.39"/><polygon class="cls-3" points="941.19 40.91 936.19 50.91 946.19 50.91 941.19 40.91"/><polygon class="cls-8" points="941.19 40.91 936.19 50.91 946.19 50.91 941.19 40.91"/><path class="cls-3" d="M936.19,74.49h0Z" transform="translate(0 -35.07)"/><line class="cls-8" x1="936.19" y1="39.42" x2="946.19" y2="39.42"/><path class="cls-3" d="M941.23,139v0Z" transform="translate(0 -35.07)"/><line class="cls-8" x1="941.23" y1="50.91" x2="941.23" y2="103.93"/><polygon class="cls-3" points="941.34 113.93 946.34 103.93 936.34 103.93 941.34 113.93"/><polygon class="cls-8" points="941.34 113.93 946.34 103.93 936.34 103.93 941.34 113.93"/><path class="cls-3" d="M119.79,50.66h0Z" transform="translate(0 -35.07)"/><line class="cls-8" x1="803.14" y1="15.59" x2="119.79" y2="15.59"/><polygon class="cls-3" points="813.14 15.59 803.14 10.59 803.14 20.59 813.14 15.59"/><polygon class="cls-8" points="813.14 15.59 803.14 10.59 803.14 20.59 813.14 15.59"/><path class="cls-3" d="M814.57,56.16v0Z" transform="translate(0 -35.07)"/><line class="cls-8" x1="814.57" y1="11.09" x2="814.57" y2="21.09"/><polygon class="cls-3" points="109.29 15.59 119.29 20.59 119.29 10.59 109.29 15.59"/><polygon class="cls-8" points="109.29 15.59 119.29 20.59 119.29 10.59 109.29 15.59"/><path class="cls-3" d="M108.29,55.67v0Z" transform="translate(0 -35.07)"/><line class="cls-8" x1="108.29" y1="10.59" x2="108.29" y2="20.59"/><polygon class="cls-3" points="79.06 42.27 74.06 52.27 84.06 52.27 79.06 42.27"/><polygon class="cls-8" points="79.06 42.27 74.06 52.27 84.06 52.27 79.06 42.27"/><polygon class="cls-3" points="79.06 206.82 84.06 196.82 74.06 196.82 79.06 206.82"/><polygon class="cls-8" points="79.06 206.82 84.06 196.82 74.06 196.82 79.06 206.82"/><path class="cls-3" d="M79.06,233.87v0Z" transform="translate(0 -35.07)"/><line class="cls-8" x1="79.06" y1="52.42" x2="79.06" y2="198.8"/><path class="cls-3" d="M74.06,75.85h0Z" transform="translate(0 -35.07)"/><line class="cls-8" x1="84.06" y1="40.78" x2="74.06" y2="40.78"/><polygon class="cls-3" points="79.06 206.82 84.06 196.82 74.06 196.82 79.06 206.82"/><polygon class="cls-8" points="79.06 206.82 84.06 196.82 74.06 196.82 79.06 206.82"/><path class="cls-3" d="M79.05,604.79v0Z" transform="translate(0 -35.07)"/><line class="cls-8" x1="79.06" y1="219.98" x2="79.05" y2="569.72"/><polygon class="cls-3" points="79.06 209.98 74.06 219.98 84.06 219.98 79.06 209.98"/><polygon class="cls-8" points="79.06 209.98 74.06 219.98 84.06 219.98 79.06 209.98"/><path class="cls-3" d="M74.06,243.55h0Z" transform="translate(0 -35.07)"/><line class="cls-8" x1="74.06" y1="208.48" x2="84.06" y2="208.48"/><polygon class="cls-3" points="79.06 578.72 84.06 568.72 74.06 568.72 79.06 578.72"/><polygon class="cls-8" points="79.06 578.72 84.06 568.72 74.06 568.72 79.06 578.72"/><path class="cls-3" d="M35.15,615.7h0Z" transform="translate(0 -35.07)"/><path class="cls-3" d="M816.82,150.46h0Z" transform="translate(0 -35.07)"/><line class="cls-9" x1="932.36" y1="115.39" x2="816.82" y2="115.39"/><path class="cls-3" d="M88.84,243.43l57.39-.71Z" transform="translate(0 -35.07)"/><line class="cls-9" x1="88.84" y1="208.36" x2="146.23" y2="207.64"/><path class="cls-3" d="M818.07,74.57l114.29-.16Z" transform="translate(0 -35.07)"/><line class="cls-9" x1="818.07" y1="39.5" x2="932.36" y2="39.34"/><rect class="cls-6" x="918.34" y="309.12" width="47" height="19"/><rect class="cls-10" x="918.34" y="309.12" width="47" height="19"/><rect class="cls-6" x="917.77" y="65.72" width="47" height="19"/><rect class="cls-10" x="917.77" y="65.72" width="47" height="19"/><rect class="cls-6" x="437.93" y="6.09" width="47" height="19"/><rect class="cls-10" x="437.93" y="6.09" width="47" height="19"/><rect class="cls-6" x="55.56" y="113.55" width="47" height="19"/><rect class="cls-10" x="55.56" y="113.55" width="47" height="19"/><rect class="cls-6" x="55.56" y="377.39" width="47" height="19"/><rect class="cls-10" x="55.56" y="377.39" width="47" height="19"/><path id="_Zusammengesetzter_Pfad_" data-name="&lt;Zusammengesetzter Pfad&gt;" d="M348.58,399c1.8-2,4.09-4,3.29-6.77-1.46-4.88-6-8.57-8.66-12.74,1-.71,1.5-1.85,1.25-3.66,0-.48-.75-.52-1-.13-1.63,3.34-7,.4-6.29-2.85,1.55.56,3,1.27,4.54,1.8a.36.36,0,0,0,.15,0,.56.56,0,0,0,.48-.72,12.61,12.61,0,0,0-6-7.92c1.33-1.32,1.84-3.29.76-6.19-.17-.35-.76-.62-1-.13-4,1.92-6,1.36-6-1.77a16.34,16.34,0,0,1-.37-3.51c-.09-1.71-.05-3.47-.25-5.23a23.24,23.24,0,0,0-1.67-7.47c-1.8-3.74-5.38-6-9.13-7.16h0a12.4,12.4,0,0,0-13.41-2.6c-5.75,2.24-11.29,8.18-12.17,14.73-.54,4-.08,10,3.47,12.3.25,2.55,1.07,5.45,2.7,7.16a15.93,15.93,0,0,0,1.87,3.08c1.55,2,3.3,3.95,5.67,4.31l0,0c.12,1.19.33,2.42.54,3.61-5.21.13-12,1.5-14.61,6.42a18.86,18.86,0,0,0-7-9.64c-4.62-3.64-17.2-7.42-19.24-14,.09-2,.38-3.86.38-5.79a2.91,2.91,0,0,0,2.2-1.41c1-1.41.84-3.11,1.13-4.7a9.68,9.68,0,0,0,.38-3.21c-.25-1.5-1.13-2.9-2.76-2.63a.49.49,0,0,0-.28.08c0-4.35-.26-8.83-3.3-11.69a15.54,15.54,0,0,0-12.86-4.26c-9.5,1-11.83,8-11.59,16-.24-.62-.49-1.23-.74-1.75-1.83-4.36-3.83-7-8.58-6.47-8.66.93-14.32,8.26-12.28,17.1a1.26,1.26,0,0,0-.75.22,2.93,2.93,0,0,0-1.09,3.07,19.18,19.18,0,0,0,.79,2.64,12.9,12.9,0,0,0,.51,2.82,1.5,1.5,0,0,0,1.41.87,9.5,9.5,0,0,0,1.92,4.3c-1.25.76-2.83.54-4.17,1.06a9.41,9.41,0,0,0-3.7,2.9c-3,3.83-3.38,9.5-4.09,14.24-.41,2.95-.74,5.46,1,7.92,1.5,2,2.42,2.33,3.75,2,.09.88.34,1.77.51,2.73.25,1.4,0,3.74,1,5l.13.12c-.17.71-.3,1.46-.42,2.21-3.7,6.06-9.11,13.27-7.58,19.81s8.75,9.94,14.53,12c0,.14,0,.27.1.35-.59,3.12-2.42,5.63-3.63,8.53s-2,5.93-3.08,8.88c-.71,1.94-1.55,4.23-1,6.2a8.9,8.9,0,0,0-4,6.46,3.43,3.43,0,0,0,1.2,3.21,11.13,11.13,0,0,0,2.71,1,25.94,25.94,0,0,1,4.46,2.46c1.29.83,4.41,4.27,6.29,3.29.2,20,1.16,39.21,6,58.89a47.46,47.46,0,0,0-1.91,18.16c.42,5,1.87,9.58,3.29,14.24v0c-.21,6-3.66,10.63-4.54,16.39a21.68,21.68,0,0,0,1,9.86c-.38.56-.79,1.23-1.26,1.89l0,0a26.84,26.84,0,0,1-10.29,3.44c-1.25.17-3,.22-3.92,1.31-1.41,1.59-.87,3.17.42,4.53,2.5,2.64,8.46,2.9,11.7,2.64s6.63-1.5,9.87-2.38c2.75-.74,4.54-2.06,6.75-3.2.25,3.64,2.5,3.47,6.25,2.54,3-.79,5.58-3.64,3.36-7.46a2.12,2.12,0,0,0-.62-.76c3.63-8.61,2-21.92,2.09-30.41.12-11.87.16-24.17-2.88-35.64.71-3.83,1.58-7.65,1.95-11.56.13-1.27.26-2.55.3-3.83.63,3.56,1.3,7.13,1.79,10.64a61.56,61.56,0,0,0,4.33,14.64c.42,12.35,2.17,24.56,2.46,36.92.2,8.79,0,16.34,2.71,24.38-2,2.78-2.88,8.62-.54,10.73,2,1.89,5.49,1.58,8,1.18s6.12-1,7.91-3.25a7.25,7.25,0,0,0,.34-8.26c7.15-6.5,3-22.28,2.49-30.41-.71-11.38-1.58-22.46-3.21-33.53a144.44,144.44,0,0,0,1.34-14.73c.17-6.2-1-11.6-1.66-17.31a39.3,39.3,0,0,0,1.28-6.55c.5-5.76-.83-12-1.37-17.76-.92-10.33-3.29-22.77-2.13-33.53,4-1.45,8-4.22,6.25-9.37,1.54,1.63,6.58.75,8.13-.3-.71,27.6-2.21,54,7.07,80.34,0,1.45.13,2.9,0,4.35-.17,2.72-1.92,6.06-1.16,8.79.62,2.24,2.71,2.63,4.79,2.63a30.08,30.08,0,0,0,.62,4.71c.29,2.11.42,4.35.83,6.46-.32,5.41,1.58,10.94,2.54,16.26,1.46,7.92,2.79,15.87,4.25,23.78-1,3.6-2.12,7.21-3.29,10.68-.29.84-.75,1.8-1.08,2.73-3.16,2.46-8.33,5.71-7.13,10,.67,2.33,3.13,2.82,5.13,3a18.61,18.61,0,0,0,8.17-1.37c1,2,2.62,2.6,4.83,2.95,3.19.53,7.41,1.5,10.52.39,7.75-2.63,3.59-12.12,6.38-17.93.5,1.72,1,3.39,1.49,5.06.39,1.41.55,4.39,1.21,5.49.51.75,1.13,1.55,2.05.53,1.28-1.44-.25-4.48-.58-6-.46-1.88-.34-3.77-.88-5.67a25.87,25.87,0,0,0-.92-2.46c1-2.46,2.33-5.09,1.51-7.69-1.18-3.82-5.63-5.27-7.72-8.39-.37-.66-.82-1.28-1.19-2a18.76,18.76,0,0,0,.4-5.32,15,15,0,0,0-.62-3.16,125.67,125.67,0,0,0-.91-14.77c-.71-5.49-2.92-10.46-3.83-15.82,0-.05-.05-.09-.09-.13a4.68,4.68,0,0,0-.92-2.56c4.46-1.09,3.83-6,4.76-11.86C328.72,510,332,499.59,333.68,489a59.59,59.59,0,0,0,6.91-21.31,105.41,105.41,0,0,0,.46-13.54c-.05-5.14-1.42-9.48-2.54-14.1.57-2.64,1.21-5.28,1.87-7.83,2.62-5.62,3.66-13.1,4.16-20.09v0c2.09-.44,4.58-.41,5.71-2.38.7-1.28.21-2.68-.25-4A46.43,46.43,0,0,1,348.58,399ZM225.11,464.51a3.13,3.13,0,0,1,0-.61l0,.05Zm21.4-92.9c-.91.91-1.91,1.57-2.79,2.41a14.52,14.52,0,0,0-1.7-3.47,7.39,7.39,0,0,0-6.62-3.08,3.57,3.57,0,0,0-1-.26h-.08a4.94,4.94,0,0,1-.55-1.58,17.6,17.6,0,0,0,3.83-4.35c2.54.61,2.13-3.39,3.09-5.41.54-1.14,1.16-2.68-.38-3.25a1.56,1.56,0,0,0-.58-.08c.38-.63.75-1.15,1.05-1.72.28.92.7,1.84.91,2.59.54,1.8.7,4.79,2.42,5.23a9.75,9.75,0,0,0,2,3.82,12.41,12.41,0,0,0,3.25,2.6C248.77,367.43,248.23,369.89,246.51,371.61Zm40.41,50.58v0a13,13,0,0,1-2.93,2.38c.71-1.05,1.3-2.24,2-3.47s1.16-2.42,1.66-3.65C287.37,419.08,287.07,420.61,286.92,422.19Zm34.5,37c-.14.67-.27,1.35-.37,2s-.22,1.11-.33,1.66c1.31-9.47,4.5-18.76,7.55-27.73C325.64,443,323,451,321.42,459.18Z" transform="translate(0 -35.07)"/></svg>