<?xml version="1.0" encoding="UTF-8"?>
<!DOCTYPE svg PUBLIC "-//W3C//DTD SVG 1.1//EN" "http://www.w3.org/Graphics/SVG/1.1/DTD/svg11.dtd">
<!-- Creator: CorelDRAW SE -->
<svg xmlns="http://www.w3.org/2000/svg" xml:space="preserve" width="17.639mm" height="17.6389mm" version="1.1" style="shape-rendering:geometricPrecision; text-rendering:geometricPrecision; image-rendering:optimizeQuality; fill-rule:evenodd; clip-rule:evenodd"
viewBox="0 0 60 60"
 xmlns:xlink="http://www.w3.org/1999/xlink">
 <defs>
  <style type="text/css">
   <![CDATA[
    .fil0 {fill:#606B72}
   ]]>
  </style>
 </defs>
 <g id="Ebene_x0020_1">
  <metadata id="CorelCorpID_0Corel-Layer"/>
  <path class="fil0" d="M53 0c-2,0 -3,1 -5,2 -25,23 -28,23 -27,31 -5,0 -9,3 -12,9 0,1 -1,2 -2,2 -1,0 -6,-4 -7,-5 0,11 5,21 17,21 14,0 18,-11 17,-17 7,-1 11,-8 24,-31 1,-2 2,-4 2,-6 0,-3 -3,-6 -7,-6zm-25 52c-3,3 -6,4 -11,4 -7,0 -11,-5 -12,-9 1,0 2,0 2,0 3,0 5,-1 6,-3 1,-2 2,-7 10,-8l7 6c1,4 0,7 -2,10zm27 -42c-14,26 -17,28 -23,29l-7 -5c-1,-7 -2,-5 26,-29 0,-1 1,-1 2,-1 1,0 3,1 3,2 0,1 -1,3 -1,4l0 0z"/>
 </g>
</svg>
