<svg id="Ebene_1" data-name="Ebene 1" xmlns="http://www.w3.org/2000/svg" viewBox="0 0 839.53 463.27"><defs><style>.cls-1{fill:#606b72;}</style></defs><title>icon_TD_innen</title><polygon class="cls-1" points="785.62 0 662.21 154.28 555.37 154.28 617.08 0 571.73 0 510.02 154.28 441.47 154.28 441.47 0 399.37 0 399.37 154.28 329.77 154.28 268.07 0 222.72 0 284.42 154.28 177.33 154.28 53.91 0 0 0 157.6 197.03 158.67 196.17 158.67 196.38 202.59 196.38 202.59 463.27 244.69 463.27 244.69 196.38 592.31 196.38 592.31 463.27 634.4 463.27 634.4 196.38 682.17 196.38 682.17 196.14 682.46 196.37 839.53 0 785.62 0"/></svg>