<?xml version="1.0" encoding="utf-8"?>
<!-- Generator: Adobe Illustrator 22.1.0, SVG Export Plug-In . SVG Version: 6.00 Build 0)  -->
<svg version="1.1" id="Ebene_1" xmlns="http://www.w3.org/2000/svg" xmlns:xlink="http://www.w3.org/1999/xlink" x="0px" y="0px"
	 viewBox="0 0 640 512" style="enable-background:new 0 0 640 512;" xml:space="preserve">
<style type="text/css">
	.st0{fill:#606B71;}
</style>
<path class="st0" d="M635.7,165.8L556.1,27.9C550.2,17.7,539.5,12,528.5,12c-5.4,0-10.9,1.4-15.9,4.3L15.9,302.8
	C0.7,311.5-4.5,331,4.3,346.2L83.9,484c5.9,10.2,16.6,15.9,27.6,15.9c5.4,0,10.9-1.4,15.9-4.3L624,209.1
	C639.3,200.5,644.5,181,635.7,165.8z M111.5,468.2L31.9,330.3l69-39.8l43.8,75.8c2.2,3.8,7.1,5.1,10.9,2.9l13.8-8
	c3.8-2.2,5.1-7.1,2.9-10.9l-43.8-75.8l55.2-31.8l27.9,48.2c2.2,3.8,7.1,5.1,10.9,2.9l13.8-8c3.8-2.2,5.1-7.1,2.9-10.9l-27.9-48.2
	l55.2-31.8l43.8,75.8c2.2,3.8,7.1,5.1,10.9,2.9l13.8-8c3.8-2.2,5.1-7.1,2.9-10.9L294,179.1l55.2-31.8l27.9,48.2
	c2.2,3.8,7.1,5.1,10.9,2.9l13.8-8c3.8-2.2,5.1-7.1,2.9-10.9l-27.9-48.2L432,99.5l43.8,75.8c2.2,3.8,7.1,5.1,10.9,2.9l13.8-8
	c3.8-2.2,5.1-7.1,2.9-10.9l-43.8-75.8l69-39.8l79.6,137.8L111.5,468.2L111.5,468.2z"/>
</svg>
